<svg width="861" height="484" viewBox="0 0 861 484" fill="none" xmlns="http://www.w3.org/2000/svg">
<g id="GeneralParking4" clip-path="url(#clip0_37_355)">
<rect width="861" height="484" fill="white"></rect>
<rect id="grassBG" width="861" height="484" fill="#D9D9D9"></rect>
<rect id="F-035" x="100" y="13" width="12" height="37" fill="#84CE8F"></rect>
<rect id="F-034" x="117.5" y="13" width="12" height="37" fill="#84CE8F"></rect>
<rect id="F-033" x="135" y="13" width="12" height="37" fill="#84CE8F"></rect>
<rect id="F-032" x="152.5" y="13" width="12" height="37" fill="#84CE8F"></rect>
<rect id="F-031" x="170" y="13" width="12" height="37" fill="#84CE8F"></rect>
<rect id="F-030" x="187.5" y="13" width="12" height="37" fill="#84CE8F"></rect>
<rect id="F-029" x="205" y="13" width="12" height="37" fill="#84CE8F"></rect>
<rect id="F-028" x="222.5" y="13" width="12" height="37" fill="#84CE8F"></rect>
<rect id="E-008" x="51" y="89" width="11" height="37" transform="rotate(90 51 89)" fill="#84CE8F"></rect>
<rect id="E-007" x="51" y="107" width="11" height="37" transform="rotate(90 51 107)" fill="#84CE8F"></rect>
<rect id="E-006" x="51" y="126" width="11" height="37" transform="rotate(90 51 126)" fill="#84CE8F"></rect>
<rect id="E-005" x="51" y="144" width="11" height="37" transform="rotate(90 51 144)" fill="#84CE8F"></rect>
<rect id="E-004" x="51" y="163" width="10" height="37" transform="rotate(90 51 163)" fill="#84CE8F"></rect>
<rect id="D-063" x="286" y="121" width="12" height="37" fill="#84CE8F"></rect>
<rect id="E-003" x="51" y="180" width="12" height="37" transform="rotate(90 51 180)" fill="#84CE8F"></rect>
<rect id="E-002" x="51" y="198" width="13" height="37" transform="rotate(90 51 198)" fill="#84CE8F"></rect>
<rect id="E-001" x="51" y="217" width="11" height="37" transform="rotate(90 51 217)" fill="#84CE8F"></rect>
<rect id="F-027" x="240" y="13" width="12" height="37" fill="#84CE8F"></rect>
<rect id="F-026" x="257.5" y="13" width="12" height="37" fill="#84CE8F"></rect>
<rect id="F-025" x="275" y="13" width="12" height="37" fill="#84CE8F"></rect>
<rect id="F-024" x="292.5" y="13" width="12" height="37" fill="#84CE8F"></rect>
<rect id="F-023" x="310" y="13" width="12" height="37" fill="#84CE8F"></rect>
<rect id="F-022" x="327.5" y="13" width="12" height="37" fill="#84CE8F"></rect>
<rect id="F-021" x="345" y="13" width="12" height="37" fill="#84CE8F"></rect>
<rect id="F-020" x="362.5" y="13" width="12" height="37" fill="#84CE8F"></rect>
<rect id="F-019" x="380" y="13" width="12" height="37" fill="#84CE8F"></rect>
<rect id="F-018" x="397.5" y="13" width="12" height="37" fill="#84CE8F"></rect>
<rect id="D-074" x="99" y="121" width="12" height="37" fill="#84CE8F"></rect>
<rect id="D-073" x="116" y="121" width="12" height="37" fill="#84CE8F"></rect>
<rect id="D-072" x="133" y="121" width="12" height="37" fill="#84CE8F"></rect>
<rect id="D-071" x="150" y="121" width="12" height="37" fill="#84CE8F"></rect>
<rect id="D-070" x="167" y="121" width="12" height="37" fill="#84CE8F"></rect>
<rect id="D-069" x="184" y="121" width="12" height="37" fill="#84CE8F"></rect>
<rect id="D-068" x="201" y="121" width="12" height="37" fill="#84CE8F"></rect>
<rect id="D-067" x="218" y="121" width="12" height="37" fill="#84CE8F"></rect>
<rect id="D-066" x="235" y="121" width="12" height="37" fill="#84CE8F"></rect>
<rect id="D-065" x="252" y="121" width="12" height="37" fill="#84CE8F"></rect>
<rect id="D-064" x="269" y="121" width="12" height="37" fill="#84CE8F"></rect>
<rect id="D-062" x="303" y="121" width="12" height="37" fill="#84CE8F"></rect>
<rect id="D-061" x="320" y="121" width="12" height="37" fill="#84CE8F"></rect>
<rect id="D-060" x="337" y="121" width="12" height="37" fill="#84CE8F"></rect>
<rect id="D-059" x="354" y="121" width="12" height="37" fill="#84CE8F"></rect>
<rect id="D-058" x="371" y="121" width="12" height="37" fill="#84CE8F"></rect>
<rect id="D-057" x="388" y="121" width="12" height="37" fill="#84CE8F"></rect>
<rect id="D-056" x="99" y="76" width="12" height="37" fill="#84CE8F"></rect>
<rect id="D-055" x="116" y="76" width="12" height="37" fill="#84CE8F"></rect>
<rect id="D-054" x="133" y="76" width="12" height="37" fill="#84CE8F"></rect>
<rect id="D-053" x="150" y="76" width="12" height="37" fill="#84CE8F"></rect>
<rect id="D-052" x="167" y="76" width="12" height="37" fill="#84CE8F"></rect>
<rect id="D-051" x="184" y="76" width="12" height="37" fill="#84CE8F"></rect>
<rect id="D-050" x="201" y="76" width="12" height="37" fill="#84CE8F"></rect>
<rect id="D-049" x="218" y="76" width="12" height="37" fill="#84CE8F"></rect>
<rect id="D-048" x="235" y="76" width="12" height="37" fill="#84CE8F"></rect>
<rect id="D-047" x="252" y="76" width="12" height="37" fill="#84CE8F"></rect>
<rect id="D-046" x="269" y="76" width="12" height="37" fill="#84CE8F"></rect>
<rect id="D-045" x="286" y="76" width="12" height="37" fill="#84CE8F"></rect>
<rect id="D-044" x="303" y="76" width="12" height="37" fill="#84CE8F"></rect>
<rect id="D-043" x="320" y="76" width="12" height="37" fill="#84CE8F"></rect>
<rect id="D-042" x="337" y="76" width="12" height="37" fill="#84CE8F"></rect>
<rect id="D-041" x="354" y="76" width="12" height="37" fill="#84CE8F"></rect>
<rect id="D-040" x="371" y="76" width="12" height="37" fill="#84CE8F"></rect>
<rect id="D-039" x="388" y="76" width="12" height="37" fill="#84CE8F"></rect>
<rect id="D-038" x="421" y="76" width="11" height="37" fill="#84CE8F"></rect>
<rect id="D-037" x="439" y="76" width="11" height="37" fill="#84CE8F"></rect>
<rect id="D-036" x="457" y="76" width="11" height="37" fill="#84CE8F"></rect>
<rect id="D-035" x="476" y="76" width="11" height="37" fill="#84CE8F"></rect>
<rect id="D-034" x="495" y="76" width="10" height="37" fill="#84CE8F"></rect>
<rect id="D-033" x="512" y="76" width="12" height="37" fill="#84CE8F"></rect>
<rect id="D-032" x="530" y="76" width="12" height="37" fill="#84CE8F"></rect>
<rect id="D-031" x="549" y="76" width="10" height="37" fill="#84CE8F"></rect>
<rect id="D-030" x="567" y="76" width="11" height="37" fill="#84CE8F"></rect>
<rect id="D-029" x="586" y="76" width="10" height="37" fill="#84CE8F"></rect>
<rect id="D-028" x="604" y="76" width="12" height="37" fill="#84CE8F"></rect>
<rect id="D-027" x="622" y="76" width="11" height="37" fill="#84CE8F"></rect>
<rect id="D-026" x="641" y="76" width="11" height="37" fill="#84CE8F"></rect>
<rect id="D-025" x="659" y="76" width="11" height="37" fill="#84CE8F"></rect>
<rect id="D-024" x="678" y="76" width="10" height="37" fill="#84CE8F"></rect>
<rect id="D-023" x="695" y="76" width="12" height="37" fill="#84CE8F"></rect>
<rect id="D-022" x="714" y="76" width="11" height="37" fill="#84CE8F"></rect>
<rect id="D-021" x="732" y="76" width="12" height="37" fill="#84CE8F"></rect>
<rect id="D-020" x="749" y="76" width="12" height="37" fill="#84CE8F"></rect>
<rect id="D-019" x="421" y="121" width="11" height="37" fill="#84CE8F"></rect>
<rect id="D-018" x="439" y="121" width="11" height="37" fill="#84CE8F"></rect>
<rect id="D-017" x="457" y="121" width="11" height="37" fill="#84CE8F"></rect>
<rect id="D-016" x="476" y="121" width="11" height="37" fill="#84CE8F"></rect>
<rect id="D-015" x="495" y="121" width="10" height="37" fill="#84CE8F"></rect>
<rect id="D-014" x="512" y="121" width="12" height="37" fill="#84CE8F"></rect>
<rect id="D-013" x="530" y="121" width="12" height="37" fill="#84CE8F"></rect>
<rect id="D-012" x="549" y="121" width="10" height="37" fill="#84CE8F"></rect>
<rect id="D-011" x="567" y="121" width="11" height="37" fill="#84CE8F"></rect>
<rect id="D-010" x="586" y="121" width="10" height="37" fill="#84CE8F"></rect>
<rect id="D-009" x="604" y="121" width="12" height="37" fill="#84CE8F"></rect>
<rect id="D-008" x="622" y="121" width="11" height="37" fill="#84CE8F"></rect>
<rect id="D-007" x="641" y="121" width="11" height="37" fill="#84CE8F"></rect>
<rect id="D-006" x="659" y="121" width="11" height="37" fill="#84CE8F"></rect>
<rect id="D-005" x="678" y="121" width="10" height="37" fill="#84CE8F"></rect>
<rect id="D-004" x="695" y="121" width="12" height="37" fill="#84CE8F"></rect>
<rect id="D-003" x="714" y="121" width="11" height="37" fill="#84CE8F"></rect>
<rect id="D-002" x="732" y="121" width="12" height="37" fill="#84CE8F"></rect>
<rect id="D-001" x="749" y="121" width="12" height="37" fill="#84CE8F"></rect>
<rect id="C-074" x="99" y="228" width="12" height="37" fill="#84CE8F"></rect>
<rect id="C-073" x="116" y="228" width="12" height="37" fill="#84CE8F"></rect>
<rect id="C-072" x="133" y="228" width="12" height="37" fill="#84CE8F"></rect>
<rect id="C-071" x="150" y="228" width="12" height="37" fill="#84CE8F"></rect>
<rect id="C-070" x="167" y="228" width="12" height="37" fill="#84CE8F"></rect>
<rect id="C-069" x="184" y="228" width="12" height="37" fill="#84CE8F"></rect>
<rect id="C-068" x="201" y="228" width="12" height="37" fill="#84CE8F"></rect>
<rect id="C-067" x="218" y="228" width="12" height="37" fill="#84CE8F"></rect>
<rect id="C-066" x="235" y="228" width="12" height="37" fill="#84CE8F"></rect>
<rect id="C-065" x="252" y="228" width="12" height="37" fill="#84CE8F"></rect>
<rect id="C-064" x="269" y="228" width="12" height="37" fill="#84CE8F"></rect>
<rect id="C-063" x="286" y="228" width="12" height="37" fill="#84CE8F"></rect>
<rect id="C-062" x="303" y="228" width="12" height="37" fill="#84CE8F"></rect>
<rect id="C-061" x="320" y="228" width="12" height="37" fill="#84CE8F"></rect>
<rect id="C-060" x="337" y="228" width="12" height="37" fill="#84CE8F"></rect>
<rect id="C-059" x="354" y="228" width="12" height="37" fill="#84CE8F"></rect>
<rect id="C-058" x="371" y="228" width="12" height="37" fill="#84CE8F"></rect>
<rect id="C-057" x="388" y="228" width="12" height="37" fill="#84CE8F"></rect>
<rect id="C-056" x="99" y="183" width="12" height="37" fill="#84CE8F"></rect>
<rect id="C-055" x="116" y="183" width="12" height="37" fill="#84CE8F"></rect>
<rect id="C-054" x="133" y="183" width="12" height="37" fill="#84CE8F"></rect>
<rect id="C-053" x="150" y="183" width="12" height="37" fill="#84CE8F"></rect>
<rect id="C-052" x="167" y="183" width="12" height="37" fill="#84CE8F"></rect>
<rect id="C-051" x="184" y="183" width="12" height="37" fill="#84CE8F"></rect>
<rect id="C-050" x="201" y="183" width="12" height="37" fill="#84CE8F"></rect>
<rect id="C-049" x="218" y="183" width="12" height="37" fill="#84CE8F"></rect>
<rect id="C-048" x="235" y="183" width="12" height="37" fill="#84CE8F"></rect>
<rect id="C-047" x="252" y="183" width="12" height="37" fill="#84CE8F"></rect>
<rect id="C-046" x="269" y="183" width="12" height="37" fill="#84CE8F"></rect>
<rect id="C-045" x="286" y="183" width="12" height="37" fill="#84CE8F"></rect>
<rect id="C-044" x="303" y="183" width="12" height="37" fill="#84CE8F"></rect>
<rect id="C-043" x="320" y="183" width="12" height="37" fill="#84CE8F"></rect>
<rect id="C-042" x="337" y="183" width="12" height="37" fill="#84CE8F"></rect>
<rect id="C-041" x="354" y="183" width="12" height="37" fill="#84CE8F"></rect>
<rect id="C-040" x="371" y="183" width="12" height="37" fill="#84CE8F"></rect>
<rect id="C-039" x="388" y="183" width="12" height="37" fill="#84CE8F"></rect>
<rect id="B-070" x="99" y="335" width="12" height="37" fill="#84CE8F"></rect>
<rect id="B-069" x="116" y="335" width="12" height="37" fill="#84CE8F"></rect>
<rect id="B-068" x="133" y="335" width="12" height="37" fill="#84CE8F"></rect>
<rect id="B-067" x="150" y="335" width="12" height="37" fill="#84CE8F"></rect>
<rect id="B-066" x="167" y="335" width="12" height="37" fill="#84CE8F"></rect>
<rect id="B-065" x="184" y="335" width="12" height="37" fill="#84CE8F"></rect>
<rect id="B-064" x="201" y="335" width="12" height="37" fill="#84CE8F"></rect>
<rect id="B-063" x="218" y="335" width="12" height="37" fill="#84CE8F"></rect>
<rect id="B-062" x="235" y="335" width="12" height="37" fill="#84CE8F"></rect>
<rect id="B-061" x="252" y="335" width="12" height="37" fill="#84CE8F"></rect>
<rect id="B-060" x="269" y="335" width="12" height="37" fill="#84CE8F"></rect>
<rect id="B-059" x="286" y="335" width="12" height="37" fill="#84CE8F"></rect>
<rect id="B-058" x="303" y="335" width="12" height="37" fill="#84CE8F"></rect>
<rect id="B-057" x="320" y="335" width="12" height="37" fill="#84CE8F"></rect>
<rect id="B-056" x="337" y="335" width="12" height="37" fill="#84CE8F"></rect>
<rect id="B-055" x="354" y="335" width="12" height="37" fill="#84CE8F"></rect>
<rect id="B-054" x="371" y="335" width="12" height="37" fill="#84CE8F"></rect>
<rect id="B-053" x="388" y="335" width="12" height="37" fill="#84CE8F"></rect>
<rect id="B-052" x="99" y="290" width="12" height="37" fill="#84CE8F"></rect>
<rect id="B-051" x="116" y="290" width="12" height="37" fill="#84CE8F"></rect>
<rect id="B-050" x="133" y="290" width="12" height="37" fill="#84CE8F"></rect>
<rect id="B-049" x="150" y="290" width="12" height="37" fill="#84CE8F"></rect>
<rect id="B-048" x="167" y="290" width="12" height="37" fill="#84CE8F"></rect>
<rect id="B-047" x="184" y="290" width="12" height="37" fill="#84CE8F"></rect>
<rect id="B-046" x="201" y="290" width="12" height="37" fill="#84CE8F"></rect>
<rect id="B-045" x="218" y="290" width="12" height="37" fill="#84CE8F"></rect>
<rect id="B-044" x="235" y="290" width="12" height="37" fill="#84CE8F"></rect>
<rect id="B-043" x="252" y="290" width="12" height="37" fill="#84CE8F"></rect>
<rect id="B-042" x="269" y="290" width="12" height="37" fill="#84CE8F"></rect>
<rect id="B-041" x="286" y="290" width="12" height="37" fill="#84CE8F"></rect>
<rect id="B-040" x="303" y="290" width="12" height="37" fill="#84CE8F"></rect>
<rect id="B-039" x="320" y="290" width="12" height="37" fill="#84CE8F"></rect>
<rect id="B-038" x="337" y="290" width="12" height="37" fill="#84CE8F"></rect>
<rect id="B-037" x="354" y="290" width="12" height="37" fill="#84CE8F"></rect>
<rect id="B-036" x="371" y="290" width="12" height="37" fill="#84CE8F"></rect>
<rect id="B-035" x="388" y="290" width="12" height="37" fill="#84CE8F"></rect>
<rect id="A-074" x="99" y="436" width="12" height="37" fill="#84CE8F"></rect>
<rect id="A-073" x="116" y="436" width="12" height="37" fill="#84CE8F"></rect>
<rect id="A-072" x="133" y="436" width="12" height="37" fill="#84CE8F"></rect>
<rect id="A-071" x="150" y="436" width="12" height="37" fill="#84CE8F"></rect>
<rect id="A-070" x="167" y="436" width="12" height="37" fill="#84CE8F"></rect>
<rect id="A-069" x="184" y="436" width="12" height="37" fill="#84CE8F"></rect>
<rect id="A-068" x="201" y="436" width="12" height="37" fill="#84CE8F"></rect>
<rect id="A-067" x="218" y="436" width="12" height="37" fill="#84CE8F"></rect>
<rect id="A-066" x="235" y="436" width="12" height="37" fill="#84CE8F"></rect>
<rect id="A-065" x="252" y="436" width="12" height="37" fill="#84CE8F"></rect>
<rect id="A-064" x="269" y="436" width="12" height="37" fill="#84CE8F"></rect>
<rect id="A-063" x="286" y="436" width="12" height="37" fill="#84CE8F"></rect>
<rect id="A-062" x="303" y="436" width="12" height="37" fill="#84CE8F"></rect>
<rect id="A-061" x="320" y="436" width="12" height="37" fill="#84CE8F"></rect>
<rect id="A-060" x="337" y="436" width="12" height="37" fill="#84CE8F"></rect>
<rect id="A-059" x="354" y="436" width="12" height="37" fill="#84CE8F"></rect>
<rect id="A-058" x="371" y="436" width="12" height="37" fill="#84CE8F"></rect>
<rect id="A-057" x="388" y="436" width="12" height="37" fill="#84CE8F"></rect>
<rect id="A-056" x="99" y="391" width="12" height="37" fill="#84CE8F"></rect>
<rect id="A-055" x="116" y="391" width="12" height="37" fill="#84CE8F"></rect>
<rect id="A-054" x="133" y="391" width="12" height="37" fill="#84CE8F"></rect>
<rect id="A-053" x="150" y="391" width="12" height="37" fill="#84CE8F"></rect>
<rect id="A-052" x="167" y="391" width="12" height="37" fill="#84CE8F"></rect>
<rect id="A-051" x="184" y="391" width="12" height="37" fill="#84CE8F"></rect>
<rect id="A-050" x="201" y="391" width="12" height="37" fill="#84CE8F"></rect>
<rect id="A-049" x="218" y="391" width="12" height="37" fill="#84CE8F"></rect>
<rect id="A-048" x="235" y="391" width="12" height="37" fill="#84CE8F"></rect>
<rect id="A-047" x="252" y="391" width="12" height="37" fill="#84CE8F"></rect>
<rect id="A-046" x="269" y="391" width="12" height="37" fill="#84CE8F"></rect>
<rect id="A-045" x="286" y="391" width="12" height="37" fill="#84CE8F"></rect>
<rect id="A-044" x="303" y="391" width="12" height="37" fill="#84CE8F"></rect>
<rect id="A-043" x="320" y="391" width="12" height="37" fill="#84CE8F"></rect>
<rect id="A-042" x="337" y="391" width="12" height="37" fill="#84CE8F"></rect>
<rect id="A-041" x="354" y="391" width="12" height="37" fill="#84CE8F"></rect>
<rect id="A-040" x="371" y="391" width="12" height="37" fill="#84CE8F"></rect>
<rect id="A-039" x="388" y="391" width="12" height="37" fill="#84CE8F"></rect>
<rect id="C-038" x="421" y="183" width="11" height="37" fill="#84CE8F"></rect>
<rect id="C-037" x="439" y="183" width="11" height="37" fill="#84CE8F"></rect>
<rect id="C-036" x="457" y="183" width="11" height="37" fill="#84CE8F"></rect>
<rect id="C-035" x="476" y="183" width="11" height="37" fill="#84CE8F"></rect>
<rect id="C-034" x="495" y="183" width="10" height="37" fill="#84CE8F"></rect>
<rect id="C-033" x="512" y="183" width="12" height="37" fill="#84CE8F"></rect>
<rect id="C-032" x="530" y="183" width="12" height="37" fill="#84CE8F"></rect>
<rect id="C-031" x="549" y="183" width="10" height="37" fill="#84CE8F"></rect>
<rect id="C-030" x="567" y="183" width="11" height="37" fill="#84CE8F"></rect>
<rect id="C-029" x="586" y="183" width="10" height="37" fill="#84CE8F"></rect>
<rect id="C-028" x="604" y="183" width="12" height="37" fill="#84CE8F"></rect>
<rect id="C-027" x="622" y="183" width="11" height="37" fill="#84CE8F"></rect>
<rect id="C-026" x="641" y="183" width="11" height="37" fill="#84CE8F"></rect>
<rect id="C-025" x="659" y="183" width="11" height="37" fill="#84CE8F"></rect>
<rect id="C-024" x="678" y="183" width="10" height="37" fill="#84CE8F"></rect>
<rect id="C-023" x="695" y="183" width="12" height="37" fill="#84CE8F"></rect>
<rect id="C-022" x="714" y="183" width="11" height="37" fill="#84CE8F"></rect>
<rect id="C-021" x="732" y="183" width="12" height="37" fill="#84CE8F"></rect>
<rect id="C-020" x="749" y="183" width="12" height="37" fill="#84CE8F"></rect>
<rect id="C-019" x="421" y="228" width="11" height="37" fill="#84CE8F"></rect>
<rect id="C-018" x="439" y="228" width="11" height="37" fill="#84CE8F"></rect>
<rect id="C-017" x="457" y="228" width="11" height="37" fill="#84CE8F"></rect>
<rect id="C-016" x="476" y="228" width="11" height="37" fill="#84CE8F"></rect>
<rect id="C-015" x="495" y="228" width="10" height="37" fill="#84CE8F"></rect>
<rect id="C-014" x="512" y="228" width="12" height="37" fill="#84CE8F"></rect>
<rect id="C-013" x="530" y="228" width="12" height="37" fill="#84CE8F"></rect>
<rect id="C-012" x="549" y="228" width="10" height="37" fill="#84CE8F"></rect>
<rect id="C-011" x="567" y="228" width="11" height="37" fill="#84CE8F"></rect>
<rect id="C-010" x="586" y="228" width="10" height="37" fill="#84CE8F"></rect>
<rect id="C-009" x="604" y="228" width="12" height="37" fill="#84CE8F"></rect>
<rect id="C-008" x="622" y="228" width="11" height="37" fill="#84CE8F"></rect>
<rect id="C-007" x="641" y="228" width="11" height="37" fill="#84CE8F"></rect>
<rect id="C-006" x="659" y="228" width="11" height="37" fill="#84CE8F"></rect>
<rect id="C-005" x="678" y="228" width="10" height="37" fill="#84CE8F"></rect>
<rect id="C-004" x="695" y="228" width="12" height="37" fill="#84CE8F"></rect>
<rect id="C-003" x="714" y="228" width="11" height="37" fill="#84CE8F"></rect>
<rect id="B-034" x="421" y="290" width="11" height="37" fill="#84CE8F"></rect>
<rect id="B-033" x="439" y="290" width="11" height="37" fill="#84CE8F"></rect>
<rect id="B-032" x="457" y="290" width="11" height="37" fill="#84CE8F"></rect>
<rect id="B-031" x="476" y="290" width="11" height="37" fill="#84CE8F"></rect>
<rect id="B-030" x="495" y="290" width="10" height="37" fill="#84CE8F"></rect>
<rect id="B-029" x="512" y="290" width="12" height="37" fill="#84CE8F"></rect>
<rect id="B-028" x="530" y="290" width="12" height="37" fill="#84CE8F"></rect>
<rect id="B-027" x="549" y="290" width="10" height="37" fill="#84CE8F"></rect>
<rect id="B-026" x="567" y="290" width="11" height="37" fill="#84CE8F"></rect>
<rect id="B-025" x="586" y="290" width="10" height="37" fill="#84CE8F"></rect>
<rect id="B-024" x="604" y="290" width="12" height="37" fill="#84CE8F"></rect>
<rect id="B-023" x="622" y="290" width="11" height="37" fill="#84CE8F"></rect>
<rect id="B-022" x="641" y="290" width="11" height="37" fill="#84CE8F"></rect>
<rect id="B-021" x="659" y="290" width="11" height="37" fill="#84CE8F"></rect>
<rect id="B-020" x="678" y="290" width="10" height="37" fill="#84CE8F"></rect>
<rect id="B-019" x="695" y="290" width="12" height="37" fill="#84CE8F"></rect>
<rect id="B-018" x="714" y="290" width="11" height="37" fill="#84CE8F"></rect>
<rect id="B-017" x="421" y="335" width="11" height="37" fill="#84CE8F"></rect>
<rect id="B-016" x="439" y="335" width="11" height="37" fill="#84CE8F"></rect>
<rect id="B-015" x="457" y="335" width="11" height="37" fill="#84CE8F"></rect>
<rect id="B-014" x="476" y="335" width="11" height="37" fill="#84CE8F"></rect>
<rect id="B-013" x="495" y="335" width="10" height="37" fill="#84CE8F"></rect>
<rect id="B-012" x="512" y="335" width="12" height="37" fill="#84CE8F"></rect>
<rect id="B-011" x="530" y="335" width="12" height="37" fill="#84CE8F"></rect>
<rect id="B-010" x="549" y="335" width="10" height="37" fill="#84CE8F"></rect>
<rect id="B-009" x="567" y="335" width="11" height="37" fill="#84CE8F"></rect>
<rect id="B-008" x="586" y="335" width="10" height="37" fill="#84CE8F"></rect>
<rect id="B-007" x="604" y="335" width="12" height="37" fill="#84CE8F"></rect>
<rect id="B-006" x="622" y="335" width="11" height="37" fill="#84CE8F"></rect>
<rect id="B-005" x="641" y="335" width="11" height="37" fill="#84CE8F"></rect>
<rect id="B-004" x="659" y="335" width="11" height="37" fill="#84CE8F"></rect>
<rect id="B-003" x="678" y="335" width="10" height="37" fill="#84CE8F"></rect>
<rect id="B-002" x="695" y="335" width="12" height="37" fill="#84CE8F"></rect>
<rect id="B-001" x="714" y="335" width="11" height="37" fill="#84CE8F"></rect>
<rect id="C-002" x="732" y="228" width="12" height="37" fill="#84CE8F"></rect>
<rect id="C-001" x="749" y="228" width="12" height="37" fill="#84CE8F"></rect>
<rect id="A-038" x="421" y="391" width="11" height="37" fill="#84CE8F"></rect>
<rect id="A-037" x="439" y="391" width="11" height="37" fill="#84CE8F"></rect>
<rect id="A-036" x="457" y="391" width="11" height="37" fill="#84CE8F"></rect>
<rect id="A-035" x="476" y="391" width="11" height="37" fill="#84CE8F"></rect>
<rect id="A-034" x="495" y="391" width="10" height="37" fill="#84CE8F"></rect>
<rect id="A-033" x="512" y="391" width="12" height="37" fill="#84CE8F"></rect>
<rect id="A-032" x="530" y="391" width="12" height="37" fill="#84CE8F"></rect>
<rect id="A-031" x="549" y="391" width="10" height="37" fill="#84CE8F"></rect>
<rect id="A-030" x="567" y="391" width="11" height="37" fill="#84CE8F"></rect>
<rect id="A-029" x="586" y="391" width="10" height="37" fill="#84CE8F"></rect>
<rect id="A-028" x="604" y="391" width="12" height="37" fill="#84CE8F"></rect>
<rect id="A-027" x="622" y="391" width="11" height="37" fill="#84CE8F"></rect>
<rect id="A-026" x="641" y="391" width="11" height="37" fill="#84CE8F"></rect>
<rect id="A-025" x="659" y="391" width="11" height="37" fill="#84CE8F"></rect>
<rect id="A-024" x="678" y="391" width="10" height="37" fill="#84CE8F"></rect>
<rect id="A-023" x="695" y="391" width="12" height="37" fill="#84CE8F"></rect>
<rect id="A-022" x="714" y="391" width="11" height="37" fill="#84CE8F"></rect>
<rect id="A-021" x="732" y="391" width="12" height="37" fill="#84CE8F"></rect>
<rect id="A-020" x="749" y="391" width="12" height="37" fill="#84CE8F"></rect>
<rect id="A-019" x="421" y="436" width="11" height="37" fill="#84CE8F"></rect>
<rect id="A-018" x="439" y="436" width="11" height="37" fill="#84CE8F"></rect>
<rect id="A-017" x="457" y="436" width="11" height="37" fill="#84CE8F"></rect>
<rect id="A-016" x="476" y="436" width="11" height="37" fill="#84CE8F"></rect>
<rect id="A-015" x="495" y="436" width="10" height="37" fill="#84CE8F"></rect>
<rect id="A-014" x="512" y="436" width="12" height="37" fill="#84CE8F"></rect>
<rect id="A-013" x="530" y="436" width="12" height="37" fill="#84CE8F"></rect>
<rect id="A-012" x="549" y="436" width="10" height="37" fill="#84CE8F"></rect>
<rect id="A-011" x="567" y="436" width="11" height="37" fill="#84CE8F"></rect>
<rect id="A-010" x="586" y="436" width="10" height="37" fill="#84CE8F"></rect>
<rect id="A-009" x="604" y="436" width="12" height="37" fill="#84CE8F"></rect>
<rect id="A-008" x="622" y="436" width="11" height="37" fill="#84CE8F"></rect>
<rect id="A-007" x="641" y="436" width="11" height="37" fill="#84CE8F"></rect>
<rect id="A-006" x="659" y="436" width="11" height="37" fill="#84CE8F"></rect>
<rect id="A-005" x="678" y="436" width="10" height="37" fill="#84CE8F"></rect>
<rect id="A-004" x="695" y="436" width="12" height="37" fill="#84CE8F"></rect>
<rect id="A-003" x="714" y="436" width="11" height="37" fill="#84CE8F"></rect>
<rect id="A-002" x="732" y="436" width="12" height="37" fill="#84CE8F"></rect>
<rect id="A-001" x="749" y="436" width="12" height="37" fill="#84CE8F"></rect>
<rect id="F-017" x="415" y="13" width="12" height="37" fill="#84CE8F"></rect>
<rect id="F-016" x="432.5" y="13" width="12" height="37" fill="#84CE8F"></rect>
<rect id="F-015" x="450" y="13" width="12" height="37" fill="#84CE8F"></rect>
<rect id="F-014" x="467.5" y="13" width="12" height="37" fill="#84CE8F"></rect>
<rect id="F-013" x="485" y="13" width="12" height="37" fill="#84CE8F"></rect>
<rect id="F-012" x="502.5" y="13" width="12" height="37" fill="#84CE8F"></rect>
<rect id="F-011" x="520" y="13" width="12" height="37" fill="#84CE8F"></rect>
<rect id="F-010" x="537.5" y="13" width="12" height="37" fill="#84CE8F"></rect>
<rect id="F-009" x="555" y="13" width="12" height="37" fill="#84CE8F"></rect>
<rect id="F-008" x="572.5" y="13" width="12" height="37" fill="#84CE8F"></rect>
<rect id="F-007" x="590" y="13" width="12" height="37" fill="#84CE8F"></rect>
<rect id="F-006" x="607.5" y="13" width="12" height="37" fill="#84CE8F"></rect>
<rect id="F-005" x="625" y="13" width="12" height="37" fill="#84CE8F"></rect>
<rect id="F-004" x="642.5" y="13" width="12" height="37" fill="#84CE8F"></rect>
<rect id="F-003" x="660" y="13" width="12" height="37" fill="#84CE8F"></rect>
<rect id="F-002" x="677.5" y="13" width="12" height="37" fill="#84CE8F"></rect>
<rect id="F-001" x="695" y="13" width="12" height="37" fill="#84CE8F"></rect>
<rect id="grassBG_2" width="624" height="9" transform="matrix(1 0 0 -1 93 9)" fill="#7E9E66"></rect>
<rect id="grassBG_3" width="10" height="156" transform="matrix(1 0 0 -1 0 237)" fill="#7E9E66"></rect>
<rect id="grassBG_4" width="55" height="10" transform="matrix(1 0 0 -1 -4 86)" fill="#7E9E66"></rect>
<rect id="grassBG_5" width="55" height="52" transform="matrix(1 0 0 -1 -3 50)" fill="#7E9E66"></rect>
<rect id="grassBG_6" width="55" height="10" transform="matrix(1 0 0 -1 -4 241)" fill="#7E9E66"></rect>
<rect id="grassBG_7" width="55" height="82" transform="matrix(1 0 0 -1 -10 372)" fill="#7E9E66"></rect>
<rect id="grassBG_8" width="23" height="28" transform="matrix(1 0 0 -1 -10 396)" fill="#7E9E66"></rect>
<rect id="grassBG_9" width="23" height="28" transform="matrix(1 0 0 -1 2 386)" fill="#7E9E66"></rect>
<rect id="grassBG_10" width="16" height="82" transform="matrix(0.642788 0.766044 0.766044 -0.642788 -28 412.708)" fill="#7E9E66"></rect>
<rect id="grassBG_11" width="55" height="82" transform="matrix(1 0 0 -1 -10 372)" fill="#7E9E66"></rect>
<rect id="grassBG_12" width="10" height="21" transform="matrix(1 0 0 -1 35 445)" fill="#7E9E66"></rect>
<rect id="grassBG_13" width="23" height="28" transform="matrix(1 0 0 -1 -10 396)" fill="#7E9E66"></rect>
<rect id="grassBG_14" width="23" height="28" transform="matrix(1 0 0 -1 2 386)" fill="#7E9E66"></rect>
<rect id="grassBG_15" width="16" height="82" transform="matrix(0.642788 0.766044 0.766044 -0.642788 -28 412.708)" fill="#7E9E66"></rect>
<rect id="grassBG_16" width="16" height="82" transform="matrix(0.642788 0.766044 0.766044 -0.642788 -28 476.708)" fill="#7E9E66"></rect>
<rect id="grassBG_17" width="47" height="9" transform="matrix(1 0 0 -1 297 9)" fill="#BABABA"></rect>
<rect id="grassBG_18" x="402" y="391" width="4" height="82" fill="#BABABA"></rect>
<rect id="grassBG_19" x="415" y="391" width="4" height="82" fill="#BABABA"></rect>
<rect id="grassBG_20" x="402" y="290" width="4" height="82" fill="#BABABA"></rect>
<rect id="grassBG_21" x="415" y="290" width="4" height="82" fill="#BABABA"></rect>
<rect id="grassBG_22" x="402" y="183" width="4" height="82" fill="#BABABA"></rect>
<rect id="grassBG_23" x="93" y="183" width="4" height="82" fill="#BABABA"></rect>
<rect id="grassBG_24" x="93" y="290" width="4" height="82" fill="#BABABA"></rect>
<rect id="grassBG_25" x="93" y="391" width="4" height="82" fill="#BABABA"></rect>
<rect id="grassBG_26" x="93" y="76" width="4" height="82" fill="#BABABA"></rect>
<rect id="grassBG_27" x="93" y="9" width="4" height="41" fill="#BABABA"></rect>
<rect id="grassBG_28" x="415" y="183" width="4" height="82" fill="#BABABA"></rect>
<rect id="grassBG_29" x="402" y="76" width="4" height="82" fill="#BABABA"></rect>
<rect id="grassBG_30" x="415" y="76" width="4" height="82" fill="#BABABA"></rect>
<rect id="grassBG_31" x="714" width="4" height="51" fill="#BABABA"></rect>
<rect id="grassBG_32" x="763" y="76" width="5" height="82" fill="#BABABA"></rect>
<rect id="grassBG_33" x="763" y="183" width="5" height="82" fill="#BABABA"></rect>
<rect id="grassBG_34" x="727" y="290" width="5" height="82" fill="#BABABA"></rect>
<rect id="grassBG_35" x="763" y="391" width="5" height="82" fill="#BABABA"></rect>
<rect id="grassBG_36" x="715.3" y="50" width="10" height="1" fill="#BABABA"></rect>
<rect id="grassBG_37" x="716" y="32" width="6" height="18" fill="#BABABA"></rect>
<rect id="grassBG_38" x="714" y="9.69458" width="4" height="42" transform="rotate(-10 714 9.69458)" fill="#BABABA"></rect>
</g>
<defs>
<clipPath id="clip0_37_355">
<rect width="861" height="484" fill="white"></rect>
</clipPath>
</defs>
</svg>