<svg width="861" height="484" viewBox="0 0 861 484" fill="none" xmlns="http://www.w3.org/2000/svg">
<g id="GeneralParking2" clip-path="url(#clip0_37_347)">
<rect width="861" height="484" fill="white"></rect>
<rect id="grassBG" width="861" height="484" fill="#D9D9D9"></rect>
<rect id="E-024" x="204" y="9" width="15" height="40" fill="#84CE8F"></rect>
<rect id="E-023" x="184" y="9" width="15" height="40" fill="#84CE8F"></rect>
<rect id="E-022" x="223" y="9" width="15" height="40" fill="#84CE8F"></rect>
<rect id="E-021" x="243" y="9" width="15" height="40" fill="#84CE8F"></rect>
<rect id="E-020" x="262" y="9" width="15" height="40" fill="#84CE8F"></rect>
<rect id="E-019" x="282" y="9" width="15" height="40" fill="#84CE8F"></rect>
<rect id="E-018" x="301" y="9" width="15" height="40" fill="#84CE8F"></rect>
<rect id="E-017" x="321" y="9" width="15" height="40" fill="#84CE8F"></rect>
<rect id="E-016" x="340" y="9" width="15" height="40" fill="#84CE8F"></rect>
<rect id="E-015" x="360" y="9" width="15" height="40" fill="#84CE8F"></rect>
<rect id="D-038" x="258" y="76" width="15" height="40" fill="#84CE8F"></rect>
<rect id="D-037" x="238" y="76" width="15" height="40" fill="#84CE8F"></rect>
<rect id="D-036" x="277" y="76" width="15" height="40" fill="#84CE8F"></rect>
<rect id="D-035" x="297" y="76" width="15" height="40" fill="#84CE8F"></rect>
<rect id="D-034" x="316" y="76" width="15" height="40" fill="#84CE8F"></rect>
<rect id="D-033" x="336" y="76" width="15" height="40" fill="#84CE8F"></rect>
<rect id="D-032" x="355" y="76" width="15" height="40" fill="#84CE8F"></rect>
<rect id="D-031" x="375" y="76" width="15" height="40" fill="#84CE8F"></rect>
<rect id="D-030" x="394" y="76" width="15" height="40" fill="#84CE8F"></rect>
<rect id="D-029" x="414" y="76" width="15" height="40" fill="#84CE8F"></rect>
<rect id="D-028" x="258" y="123" width="15" height="40" fill="#84CE8F"></rect>
<rect id="D-027" x="238" y="123" width="15" height="40" fill="#84CE8F"></rect>
<rect id="D-026" x="277" y="123" width="15" height="40" fill="#84CE8F"></rect>
<rect id="D-025" x="297" y="123" width="15" height="40" fill="#84CE8F"></rect>
<rect id="D-024" x="316" y="123" width="15" height="40" fill="#84CE8F"></rect>
<rect id="D-023" x="336" y="123" width="15" height="40" fill="#84CE8F"></rect>
<rect id="D-022" x="355" y="123" width="15" height="40" fill="#84CE8F"></rect>
<rect id="D-021" x="375" y="123" width="15" height="40" fill="#84CE8F"></rect>
<rect id="D-020" x="394" y="123" width="15" height="40" fill="#84CE8F"></rect>
<rect id="D-019" x="414" y="123" width="15" height="40" fill="#84CE8F"></rect>
<rect id="C-037" x="270" y="193" width="15" height="40" fill="#84CE8F"></rect>
<rect id="C-036" x="250" y="193" width="15" height="40" fill="#84CE8F"></rect>
<rect id="C-035" x="289" y="193" width="15" height="40" fill="#84CE8F"></rect>
<rect id="C-034" x="309" y="193" width="15" height="40" fill="#84CE8F"></rect>
<rect id="C-033" x="328" y="193" width="15" height="40" fill="#84CE8F"></rect>
<rect id="C-032" x="348" y="193" width="15" height="40" fill="#84CE8F"></rect>
<rect id="C-031" x="367" y="193" width="15" height="40" fill="#84CE8F"></rect>
<rect id="C-030" x="387" y="193" width="15" height="40" fill="#84CE8F"></rect>
<rect id="C-029" x="406" y="193" width="15" height="40" fill="#84CE8F"></rect>
<rect id="C-028" x="426" y="193" width="15" height="40" fill="#84CE8F"></rect>
<rect id="C-027" x="446" y="193" width="15" height="40" fill="#84CE8F"></rect>
<rect id="C-026" x="270" y="248" width="15" height="40" fill="#84CE8F"></rect>
<rect id="C-025" x="250" y="248" width="15" height="40" fill="#84CE8F"></rect>
<rect id="C-024" x="289" y="248" width="15" height="40" fill="#84CE8F"></rect>
<rect id="C-023" x="309" y="248" width="15" height="40" fill="#84CE8F"></rect>
<rect id="C-022" x="328" y="248" width="15" height="40" fill="#84CE8F"></rect>
<rect id="C-021" x="348" y="248" width="15" height="40" fill="#84CE8F"></rect>
<rect id="C-020" x="367" y="248" width="15" height="40" fill="#84CE8F"></rect>
<rect id="C-019" x="387" y="248" width="15" height="40" fill="#84CE8F"></rect>
<rect id="C-018" x="406" y="248" width="15" height="40" fill="#84CE8F"></rect>
<rect id="C-017" x="426" y="248" width="15" height="40" fill="#84CE8F"></rect>
<rect id="C-016" x="446" y="248" width="15" height="40" fill="#84CE8F"></rect>
<rect id="B-049" x="241" y="319" width="15" height="40" fill="#84CE8F"></rect>
<rect id="B-048" x="221" y="319" width="15" height="40" fill="#84CE8F"></rect>
<rect id="B-047" x="260" y="319" width="15" height="40" fill="#84CE8F"></rect>
<rect id="B-046" x="280" y="319" width="15" height="40" fill="#84CE8F"></rect>
<rect id="B-045" x="299" y="319" width="15" height="40" fill="#84CE8F"></rect>
<rect id="B-044" x="319" y="319" width="15" height="40" fill="#84CE8F"></rect>
<rect id="B-043" x="338" y="319" width="15" height="40" fill="#84CE8F"></rect>
<rect id="B-042" x="358" y="319" width="15" height="40" fill="#84CE8F"></rect>
<rect id="B-041" x="377" y="319" width="15" height="40" fill="#84CE8F"></rect>
<rect id="B-040" x="397" y="319" width="15" height="40" fill="#84CE8F"></rect>
<rect id="B-039" x="417" y="319" width="15" height="40" fill="#84CE8F"></rect>
<rect id="B-038" x="241" y="365" width="15" height="40" fill="#84CE8F"></rect>
<rect id="B-037" x="221" y="365" width="15" height="40" fill="#84CE8F"></rect>
<rect id="B-036" x="260" y="365" width="15" height="40" fill="#84CE8F"></rect>
<rect id="B-035" x="280" y="365" width="15" height="40" fill="#84CE8F"></rect>
<rect id="B-034" x="299" y="365" width="15" height="40" fill="#84CE8F"></rect>
<rect id="B-033" x="319" y="365" width="15" height="40" fill="#84CE8F"></rect>
<rect id="B-032" x="338" y="365" width="15" height="40" fill="#84CE8F"></rect>
<rect id="B-031" x="358" y="365" width="15" height="40" fill="#84CE8F"></rect>
<rect id="B-030" x="377" y="365" width="15" height="40" fill="#84CE8F"></rect>
<rect id="B-029" x="397" y="365" width="15" height="40" fill="#84CE8F"></rect>
<rect id="B-028" x="417" y="365" width="15" height="40" fill="#84CE8F"></rect>
<rect id="B-027" x="437" y="319" width="15" height="40" fill="#84CE8F"></rect>
<rect id="B-026" x="457" y="319" width="15" height="40" fill="#84CE8F"></rect>
<rect id="B-025" x="476" y="319" width="15" height="40" fill="#84CE8F"></rect>
<rect id="B-024" x="496" y="319" width="15" height="40" fill="#84CE8F"></rect>
<rect id="B-023" x="516" y="319" width="15" height="40" fill="#84CE8F"></rect>
<rect id="B-022" x="437" y="365" width="15" height="40" fill="#84CE8F"></rect>
<rect id="B-021" x="457" y="365" width="15" height="40" fill="#84CE8F"></rect>
<rect id="B-020" x="476" y="365" width="15" height="40" fill="#84CE8F"></rect>
<rect id="B-019" x="496" y="365" width="15" height="40" fill="#84CE8F"></rect>
<rect id="B-018" x="516" y="365" width="15" height="40" fill="#84CE8F"></rect>
<rect id="B-017" x="552" y="319" width="15" height="40" fill="#84CE8F"></rect>
<rect id="B-016" x="572" y="319" width="15" height="40" fill="#84CE8F"></rect>
<rect id="B-015" x="592" y="319" width="15" height="40" fill="#84CE8F"></rect>
<rect id="B-014" x="552" y="365" width="15" height="40" fill="#84CE8F"></rect>
<rect id="B-013" x="572" y="365" width="15" height="40" fill="#84CE8F"></rect>
<rect id="B-012" x="592" y="365" width="15" height="40" fill="#84CE8F"></rect>
<rect id="B-011" x="612" y="319" width="15" height="40" fill="#84CE8F"></rect>
<rect id="B-010" x="632" y="319" width="15" height="40" fill="#84CE8F"></rect>
<rect id="B-009" x="651" y="319" width="15" height="40" fill="#84CE8F"></rect>
<rect id="B-008" x="671" y="319" width="15" height="40" fill="#84CE8F"></rect>
<rect id="B-007" x="691" y="319" width="15" height="40" fill="#84CE8F"></rect>
<rect id="B-006" x="612" y="365" width="15" height="40" fill="#84CE8F"></rect>
<rect id="B-005" x="632" y="365" width="15" height="40" fill="#84CE8F"></rect>
<rect id="B-004" x="651" y="365" width="15" height="40" fill="#84CE8F"></rect>
<rect id="B-003" x="671" y="365" width="15" height="40" fill="#84CE8F"></rect>
<rect id="B-002" x="691" y="365" width="15" height="40" fill="#84CE8F"></rect>
<rect id="B-001" x="711" y="365" width="15" height="40" fill="#84CE8F"></rect>
<rect id="A-027" x="242" y="439" width="15" height="40" fill="#84CE8F"></rect>
<rect id="A-026" x="222" y="439" width="15" height="40" fill="#84CE8F"></rect>
<rect id="A-025" x="261" y="439" width="15" height="40" fill="#84CE8F"></rect>
<rect id="A-024" x="281" y="439" width="15" height="40" fill="#84CE8F"></rect>
<rect id="A-023" x="300" y="439" width="15" height="40" fill="#84CE8F"></rect>
<rect id="A-022" x="320" y="439" width="15" height="40" fill="#84CE8F"></rect>
<rect id="A-021" x="339" y="439" width="15" height="40" fill="#84CE8F"></rect>
<rect id="A-020" x="359" y="439" width="15" height="40" fill="#84CE8F"></rect>
<rect id="A-019" x="378" y="439" width="15" height="40" fill="#84CE8F"></rect>
<rect id="A-018" x="398" y="439" width="15" height="40" fill="#84CE8F"></rect>
<rect id="A-017" x="418" y="439" width="15" height="40" fill="#84CE8F"></rect>
<rect id="A-016" x="438" y="439" width="15" height="40" fill="#84CE8F"></rect>
<rect id="A-015" x="458" y="439" width="15" height="40" fill="#84CE8F"></rect>
<rect id="A-014" x="477" y="439" width="15" height="40" fill="#84CE8F"></rect>
<rect id="A-013" x="497" y="439" width="15" height="40" fill="#84CE8F"></rect>
<rect id="A-012" x="517" y="439" width="15" height="40" fill="#84CE8F"></rect>
<rect id="A-011" x="537" y="439" width="15" height="40" fill="#84CE8F"></rect>
<rect id="A-010" x="590" y="439" width="15" height="40" fill="#84CE8F"></rect>
<rect id="A-009" x="610" y="439" width="15" height="40" fill="#84CE8F"></rect>
<rect id="A-008" x="630" y="439" width="15" height="40" fill="#84CE8F"></rect>
<rect id="A-007" x="650" y="439" width="15" height="40" fill="#84CE8F"></rect>
<rect id="A-006" x="669" y="439" width="15" height="40" fill="#84CE8F"></rect>
<rect id="A-005" x="689" y="439" width="15" height="40" fill="#84CE8F"></rect>
<rect id="A-004" x="709" y="439" width="15" height="40" fill="#84CE8F"></rect>
<rect id="A-003" x="729" y="439" width="15" height="40" fill="#84CE8F"></rect>
<rect id="A-002" x="749" y="439" width="15" height="40" fill="#84CE8F"></rect>
<rect id="A-001" x="769" y="439" width="15" height="40" fill="#84CE8F"></rect>
<rect id="C-015" x="491" y="193" width="15" height="40" fill="#84CE8F"></rect>
<rect id="C-014" x="511" y="193" width="15" height="40" fill="#84CE8F"></rect>
<rect id="C-013" x="531" y="193" width="15" height="40" fill="#84CE8F"></rect>
<rect id="C-012" x="551" y="193" width="15" height="40" fill="#84CE8F"></rect>
<rect id="C-011" x="571" y="193" width="15" height="40" fill="#84CE8F"></rect>
<rect id="C-010" x="591" y="193" width="15" height="40" fill="#84CE8F"></rect>
<rect id="C-009" x="611" y="193" width="15" height="40" fill="#84CE8F"></rect>
<rect id="C-008" x="491" y="248" width="15" height="40" fill="#84CE8F"></rect>
<rect id="C-007" x="511" y="248" width="15" height="40" fill="#84CE8F"></rect>
<rect id="C-006" x="531" y="248" width="15" height="40" fill="#84CE8F"></rect>
<rect id="C-005" x="551" y="248" width="15" height="40" fill="#84CE8F"></rect>
<rect id="C-004" x="571" y="248" width="15" height="40" fill="#84CE8F"></rect>
<rect id="C-003" x="591" y="248" width="15" height="40" fill="#84CE8F"></rect>
<rect id="C-002" x="611" y="248" width="15" height="40" fill="#84CE8F"></rect>
<rect id="C-001" x="631" y="248" width="15" height="40" fill="#84CE8F"></rect>
<rect id="D-018" x="473" y="76" width="15" height="40" fill="#84CE8F"></rect>
<rect id="D-017" x="453" y="76" width="15" height="40" fill="#84CE8F"></rect>
<rect id="D-016" x="492" y="76" width="15" height="40" fill="#84CE8F"></rect>
<rect id="D-015" x="512" y="76" width="15" height="40" fill="#84CE8F"></rect>
<rect id="D-014" x="531" y="76" width="15" height="40" fill="#84CE8F"></rect>
<rect id="D-013" x="551" y="76" width="15" height="40" fill="#84CE8F"></rect>
<rect id="D-012" x="570" y="76" width="15" height="40" fill="#84CE8F"></rect>
<rect id="D-011" x="590" y="76" width="15" height="40" fill="#84CE8F"></rect>
<rect id="D-010" x="609" y="76" width="15" height="40" fill="#84CE8F"></rect>
<rect id="D-009" x="473" y="122" width="15" height="40" fill="#84CE8F"></rect>
<rect id="D-008" x="453" y="122" width="15" height="40" fill="#84CE8F"></rect>
<rect id="D-007" x="492" y="122" width="15" height="40" fill="#84CE8F"></rect>
<rect id="D-006" x="512" y="122" width="15" height="40" fill="#84CE8F"></rect>
<rect id="D-005" x="531" y="122" width="15" height="40" fill="#84CE8F"></rect>
<rect id="D-004" x="551" y="122" width="15" height="40" fill="#84CE8F"></rect>
<rect id="D-003" x="570" y="122" width="15" height="40" fill="#84CE8F"></rect>
<rect id="D-002" x="590" y="122" width="15" height="40" fill="#84CE8F"></rect>
<rect id="D-001" x="609" y="122" width="15" height="40" fill="#84CE8F"></rect>
<rect id="E-014" x="379" y="9" width="15" height="40" fill="#84CE8F"></rect>
<rect id="E-013" x="399" y="9" width="15" height="40" fill="#84CE8F"></rect>
<rect id="E-012" x="418" y="9" width="15" height="40" fill="#84CE8F"></rect>
<rect id="E-011" x="438" y="9" width="15" height="40" fill="#84CE8F"></rect>
<rect id="E-010" x="457" y="9" width="15" height="40" fill="#84CE8F"></rect>
<rect id="E-009" x="477" y="9" width="15" height="40" fill="#84CE8F"></rect>
<rect id="E-008" x="496" y="9" width="15" height="40" fill="#84CE8F"></rect>
<rect id="E-007" x="516" y="9" width="15" height="40" fill="#84CE8F"></rect>
<rect id="E-006" x="536" y="9" width="15" height="40" fill="#84CE8F"></rect>
<rect id="E-005" x="555" y="9" width="15" height="40" fill="#84CE8F"></rect>
<rect id="E-004" x="575" y="9" width="15" height="40" fill="#84CE8F"></rect>
<rect id="E-003" x="594" y="9" width="15" height="40" fill="#84CE8F"></rect>
<rect id="E-002" x="614" y="9" width="15" height="40" fill="#84CE8F"></rect>
<rect id="E-001" x="633" y="9" width="15" height="40" fill="#84CE8F"></rect>
<rect id="F-024" x="81" y="30" width="15" height="50" transform="rotate(90 81 30)" fill="#84CE8F"></rect>
<rect id="F-023" x="81" y="10" width="15" height="50" transform="rotate(90 81 10)" fill="#84CE8F"></rect>
<rect id="F-022" x="81" y="49" width="15" height="50" transform="rotate(90 81 49)" fill="#84CE8F"></rect>
<rect id="F-021" x="81" y="69" width="15" height="50" transform="rotate(90 81 69)" fill="#84CE8F"></rect>
<rect id="F-020" x="81" y="88" width="15" height="50" transform="rotate(90 81 88)" fill="#84CE8F"></rect>
<rect id="F-019" x="81" y="108" width="15" height="50" transform="rotate(90 81 108)" fill="#84CE8F"></rect>
<rect id="F-018" x="81" y="127" width="15" height="50" transform="rotate(90 81 127)" fill="#84CE8F"></rect>
<rect id="F-017" x="81" y="147" width="15" height="50" transform="rotate(90 81 147)" fill="#84CE8F"></rect>
<rect id="F-016" x="81" y="166" width="15" height="50" transform="rotate(90 81 166)" fill="#84CE8F"></rect>
<rect id="F-015" x="81" y="186" width="15" height="50" transform="rotate(90 81 186)" fill="#84CE8F"></rect>
<rect id="F-014" x="81" y="205" width="15" height="50" transform="rotate(90 81 205)" fill="#84CE8F"></rect>
<rect id="F-013" x="81" y="225" width="15" height="50" transform="rotate(90 81 225)" fill="#84CE8F"></rect>
<rect id="F-012" x="81" y="244" width="15" height="50" transform="rotate(90 81 244)" fill="#84CE8F"></rect>
<rect id="F-011" x="81" y="264" width="15" height="50" transform="rotate(90 81 264)" fill="#84CE8F"></rect>
<rect id="F-010" x="81" y="283" width="15" height="50" transform="rotate(90 81 283)" fill="#84CE8F"></rect>
<rect id="F-009" x="81" y="303" width="15" height="50" transform="rotate(90 81 303)" fill="#84CE8F"></rect>
<rect id="F-008" x="81" y="322" width="15" height="50" transform="rotate(90 81 322)" fill="#84CE8F"></rect>
<rect id="F-007" x="81" y="342" width="15" height="50" transform="rotate(90 81 342)" fill="#84CE8F"></rect>
<rect id="F-006" x="81" y="362" width="15" height="50" transform="rotate(90 81 362)" fill="#84CE8F"></rect>
<rect id="F-005" x="81" y="381" width="15" height="50" transform="rotate(90 81 381)" fill="#84CE8F"></rect>
<rect id="F-004" x="81" y="401" width="15" height="50" transform="rotate(90 81 401)" fill="#84CE8F"></rect>
<rect id="F-003" x="81" y="420" width="15" height="50" transform="rotate(90 81 420)" fill="#84CE8F"></rect>
<rect id="F-002" x="81" y="440" width="15" height="50" transform="rotate(90 81 440)" fill="#84CE8F"></rect>
<rect id="F-001" x="81" y="459" width="15" height="50" transform="rotate(90 81 459)" fill="#84CE8F"></rect>
<rect id="grassBG_2" x="213" y="319" width="5" height="86" fill="#BABABA"></rect>
<rect id="grassBG_3" x="547" y="319" width="4" height="86" fill="#BABABA"></rect>
<rect id="grassBG_4" x="532" y="319" width="4" height="86" fill="#BABABA"></rect>
<rect id="grassBG_5" x="554" y="439" width="6" height="51" fill="#BABABA"></rect>
<rect id="grassBG_6" x="213" y="439" width="6" height="51" fill="#BABABA"></rect>
<rect id="grassBG_7" x="582" y="439" width="6" height="51" fill="#BABABA"></rect>
<rect id="grassBG_8" x="786" y="439" width="6" height="51" fill="#BABABA"></rect>
<rect id="grassBG_9" x="788" y="463" width="10" height="21" fill="#BABABA"></rect>
<rect id="grassBG_10" x="786" y="440.553" width="6" height="51" transform="rotate(-15 786 440.553)" fill="#BABABA"></rect>
<rect id="grassBG_11" x="728" y="363" width="6" height="42" fill="#BABABA"></rect>
<rect id="grassBG_12" x="708" y="319" width="6" height="40" fill="#BABABA"></rect>
<rect id="grassBG_13" x="708" y="359" width="26" height="5" fill="#BABABA"></rect>
<rect id="grassBG_14" x="483" y="193" width="5" height="95" fill="#BABABA"></rect>
<rect id="grassBG_15" x="648" y="236" width="5" height="53" fill="#BABABA"></rect>
<rect id="grassBG_16" x="628" y="192" width="5" height="53" fill="#BABABA"></rect>
<rect id="grassBG_17" x="463" y="193" width="5" height="95" fill="#BABABA"></rect>
<rect id="grassBG_18" x="248" y="236" width="215" height="9" fill="#BABABA"></rect>
<rect id="grassBG_19" x="488" y="236" width="163" height="9" fill="#BABABA"></rect>
<rect id="grassBG_20" x="236" y="193" width="12" height="95" fill="#BABABA"></rect>
<rect id="grassBG_21" x="627" y="76" width="12" height="86" fill="#BABABA"></rect>
<rect id="grassBG_22" x="446" y="76" width="5" height="86" fill="#BABABA"></rect>
<rect id="grassBG_23" x="431" y="76" width="5" height="86" fill="#BABABA"></rect>
<rect id="grassBG_24" x="229" y="76" width="5" height="86" fill="#BABABA"></rect>
<rect id="grassBG_25" x="-3" y="-2" width="670" height="8" fill="#7E9E66"></rect>
<rect id="grassBG_26" x="-3" width="26" height="405" fill="#7E9E66"></rect>
<rect id="grassBG_27" x="-0.954346" y="396" width="26" height="82" transform="rotate(20 -0.954346 396)" fill="#7E9E66"></rect>
<rect id="grassBG_28" x="829" y="351" width="26" height="82" transform="rotate(-30 829 351)" fill="#7E9E66"></rect>
<rect id="grassBG_29" x="829" y="351" width="65.3179" height="82" transform="rotate(-30 829 351)" fill="#7E9E66"></rect>
<rect id="grassBG_30" x="786.935" y="232.755" width="84.2868" height="128.97" transform="rotate(-20 786.935 232.755)" fill="#7E9E66"></rect>
<rect id="grassBG_31" x="765" y="107.515" width="109.524" height="128.97" transform="rotate(-10 765 107.515)" fill="#7E9E66"></rect>
<rect id="grassBG_32" x="762.225" y="68.9927" width="116.928" height="49.8263" transform="rotate(-5 762.225 68.9927)" fill="#7E9E66"></rect>
<rect id="grassBG_33" x="758.19" y="69.4651" width="4.17709" height="49.8263" transform="rotate(-9 758.19 69.4651)" fill="#BABABA"></rect>
<rect id="grassBG_34" x="759.122" width="111" height="74" fill="#7E9E66"></rect>
<rect id="grassBG_35" x="759" width="4" height="74" fill="#BABABA"></rect>
<rect id="grassBG_36" x="829" y="351" width="6.25833" height="82" transform="rotate(-30 829 351)" fill="#BABABA"></rect>
<rect id="grassBG_37" x="786.935" y="232.755" width="5.08319" height="128.97" transform="rotate(-20 786.935 232.755)" fill="#BABABA"></rect>
<rect id="grassBG_38" x="764" y="107.515" width="4.84701" height="128.97" transform="rotate(-10 764 107.515)" fill="#BABABA"></rect>
</g>
<defs>
<clipPath id="clip0_37_347">
<rect width="861" height="484" fill="white"></rect>
</clipPath>
</defs>
</svg>