<svg width="861" height="484" viewBox="0 0 861 484" fill="none" xmlns="http://www.w3.org/2000/svg">
<g id="GeneralParking5" clip-path="url(#clip0_8_108)">
<rect width="861" height="484" fill="white"></rect>
<rect id="grassBG" width="861" height="484" fill="#D9D9D9"></rect>
<rect id="B-012" x="213.615" y="476.804" width="30" height="200" transform="rotate(-95 213.615 476.804)" fill="#84CE8F"></rect>
<rect id="B-011" x="213.615" y="440.487" width="30" height="200" transform="rotate(-95 213.615 440.487)" fill="#84CE8F"></rect>
<rect id="B-010" x="213.615" y="404.17" width="30" height="200" transform="rotate(-95 213.615 404.17)" fill="#84CE8F"></rect>
<rect id="B-009" x="213.615" y="367.853" width="30" height="200" transform="rotate(-95 213.615 367.853)" fill="#84CE8F"></rect>
<rect id="B-008" x="213.615" y="331.536" width="30" height="200" transform="rotate(-95 213.615 331.536)" fill="#84CE8F"></rect>
<rect id="B-007" x="213.615" y="295.219" width="30" height="200" transform="rotate(-95 213.615 295.219)" fill="#84CE8F"></rect>
<rect id="B-006" x="213.615" y="258.902" width="30" height="200" transform="rotate(-95 213.615 258.902)" fill="#84CE8F"></rect>
<rect id="B-005" x="213.615" y="222.585" width="30" height="200" transform="rotate(-95 213.615 222.585)" fill="#84CE8F"></rect>
<rect id="B-004" x="213.615" y="186.268" width="30" height="200" transform="rotate(-95 213.615 186.268)" fill="#84CE8F"></rect>
<rect id="B-003" x="213.615" y="149.951" width="30" height="200" transform="rotate(-95 213.615 149.951)" fill="#84CE8F"></rect>
<rect id="B-002" x="213.615" y="113.634" width="30" height="200" transform="rotate(-95 213.615 113.634)" fill="#84CE8F"></rect>
<rect id="B-001" x="213.615" y="77.317" width="30" height="200" transform="rotate(-95 213.615 77.317)" fill="#84CE8F"></rect>
<rect id="A-012" x="461.615" y="452.804" width="30" height="200" transform="rotate(-95 461.615 452.804)" fill="#84CE8F"></rect>
<rect id="A-011" x="461.615" y="416.487" width="30" height="200" transform="rotate(-95 461.615 416.487)" fill="#84CE8F"></rect>
<rect id="A-010" x="461.615" y="380.17" width="30" height="200" transform="rotate(-95 461.615 380.17)" fill="#84CE8F"></rect>
<rect id="A-009" x="461.615" y="343.853" width="30" height="200" transform="rotate(-95 461.615 343.853)" fill="#84CE8F"></rect>
<rect id="A-008" x="461.615" y="307.536" width="30" height="200" transform="rotate(-95 461.615 307.536)" fill="#84CE8F"></rect>
<rect id="A-007" x="461.615" y="271.219" width="30" height="200" transform="rotate(-95 461.615 271.219)" fill="#84CE8F"></rect>
<rect id="A-006" x="461.615" y="234.902" width="30" height="200" transform="rotate(-95 461.615 234.902)" fill="#84CE8F"></rect>
<rect id="A-005" x="461.615" y="198.585" width="30" height="200" transform="rotate(-95 461.615 198.585)" fill="#84CE8F"></rect>
<rect id="A-004" x="461.615" y="162.268" width="30" height="200" transform="rotate(-95 461.615 162.268)" fill="#84CE8F"></rect>
<rect id="A-003" x="461.615" y="125.951" width="30" height="200" transform="rotate(-95 461.615 125.951)" fill="#84CE8F"></rect>
<rect id="A-002" x="461.615" y="89.634" width="30" height="200" transform="rotate(-95 461.615 89.634)" fill="#84CE8F"></rect>
<rect id="A-001" x="461.615" y="53.317" width="30" height="200" transform="rotate(-95 461.615 53.317)" fill="#84CE8F"></rect>
</g>
<defs>
<clipPath id="clip0_8_108">
<rect width="861" height="484" fill="white"></rect>
</clipPath>
</defs>
</svg>