<svg width="861" height="484" viewBox="0 0 861 484" fill="none" xmlns="http://www.w3.org/2000/svg">
<g clip-path="url(#clip0_8_108)">
<rect width="861" height="484" fill="white"/>
<rect width="861" height="484" fill="#D9D9D9"/>
<rect x="213.615" y="476.804" width="30" height="200" transform="rotate(-95 213.615 476.804)" fill="#84CE8F" data-spot-label="A-001"/>
<rect x="213.615" y="440.487" width="30" height="200" transform="rotate(-95 213.615 440.487)" fill="#84CE8F" data-spot-label="A-002"/>
<rect x="213.615" y="404.17" width="30" height="200" transform="rotate(-95 213.615 404.17)" fill="#84CE8F" data-spot-label="A-003"/>
<rect x="213.615" y="367.853" width="30" height="200" transform="rotate(-95 213.615 367.853)" fill="#84CE8F" data-spot-label="A-004"/>
<rect x="213.615" y="331.536" width="30" height="200" transform="rotate(-95 213.615 331.536)" fill="#84CE8F" data-spot-label="A-005"/>
<rect x="213.615" y="295.219" width="30" height="200" transform="rotate(-95 213.615 295.219)" fill="#84CE8F" data-spot-label="A-006"/>
<rect x="213.615" y="258.902" width="30" height="200" transform="rotate(-95 213.615 258.902)" fill="#84CE8F" data-spot-label="A-007"/>
<rect x="213.615" y="222.585" width="30" height="200" transform="rotate(-95 213.615 222.585)" fill="#84CE8F" data-spot-label="A-008"/>
<rect x="213.615" y="186.268" width="30" height="200" transform="rotate(-95 213.615 186.268)" fill="#84CE8F" data-spot-label="A-009"/>
<rect x="213.615" y="149.951" width="30" height="200" transform="rotate(-95 213.615 149.951)" fill="#84CE8F" data-spot-label="A-010"/>
<rect x="213.615" y="113.634" width="30" height="200" transform="rotate(-95 213.615 113.634)" fill="#84CE8F" data-spot-label="A-011"/>
<rect x="213.615" y="77.317" width="30" height="200" transform="rotate(-95 213.615 77.317)" fill="#84CE8F" data-spot-label="A-012"/>
<rect x="461.615" y="452.804" width="30" height="200" transform="rotate(-95 461.615 452.804)" fill="#84CE8F" data-spot-label="B-001"/>
<rect x="461.615" y="416.487" width="30" height="200" transform="rotate(-95 461.615 416.487)" fill="#84CE8F" data-spot-label="B-002"/>
<rect x="461.615" y="380.17" width="30" height="200" transform="rotate(-95 461.615 380.17)" fill="#84CE8F" data-spot-label="B-003"/>
<rect x="461.615" y="343.853" width="30" height="200" transform="rotate(-95 461.615 343.853)" fill="#84CE8F" data-spot-label="B-004"/>
<rect x="461.615" y="307.536" width="30" height="200" transform="rotate(-95 461.615 307.536)" fill="#84CE8F" data-spot-label="B-005"/>
<rect x="461.615" y="271.219" width="30" height="200" transform="rotate(-95 461.615 271.219)" fill="#84CE8F" data-spot-label="B-006"/>
<rect x="461.615" y="234.902" width="30" height="200" transform="rotate(-95 461.615 234.902)" fill="#84CE8F" data-spot-label="B-007"/>
<rect x="461.615" y="198.585" width="30" height="200" transform="rotate(-95 461.615 198.585)" fill="#84CE8F" data-spot-label="B-008"/>
<rect x="461.615" y="162.268" width="30" height="200" transform="rotate(-95 461.615 162.268)" fill="#84CE8F" data-spot-label="B-009"/>
<rect x="461.615" y="125.951" width="30" height="200" transform="rotate(-95 461.615 125.951)" fill="#84CE8F" data-spot-label="B-010"/>
<rect x="461.615" y="89.634" width="30" height="200" transform="rotate(-95 461.615 89.634)" fill="#84CE8F" data-spot-label="B-011"/>
<rect x="461.615" y="53.317" width="30" height="200" transform="rotate(-95 461.615 53.317)" fill="#84CE8F" data-spot-label="B-012"/>
</g>
<defs>
<clipPath id="clip0_8_108">
<rect width="861" height="484" fill="white"/>
</clipPath>
</defs>
</svg>
