<svg width="861" height="484" viewBox="0 0 861 484" fill="none" xmlns="http://www.w3.org/2000/svg">
<g id="GeneralParking1" clip-path="url(#clip0_37_343)">
<rect width="861" height="484" fill="white"></rect>
<rect id="grassBG" width="861" height="484" fill="#D9D9D9"></rect>
<rect id="E-019" x="308" y="56" width="25" height="37" fill="#84CE8F"></rect>
<rect id="E-018" x="338" y="56" width="25" height="37" fill="#84CE8F"></rect>
<rect id="E-017" x="368" y="56" width="25" height="37" fill="#84CE8F"></rect>
<rect id="E-016" x="398" y="56" width="25" height="37" fill="#84CE8F"></rect>
<rect id="E-015" x="428" y="56" width="25" height="37" fill="#84CE8F"></rect>
<rect id="E-014" x="458" y="56" width="25" height="37" fill="#84CE8F"></rect>
<rect id="E-013" x="488" y="56" width="25" height="37" fill="#84CE8F"></rect>
<rect id="E-012" x="518" y="56" width="25" height="37" fill="#84CE8F"></rect>
<rect id="E-011" x="548" y="56" width="25" height="37" fill="#84CE8F"></rect>
<rect id="F-010" x="159" y="39" width="18" height="44" transform="rotate(90 159 39)" fill="#84CE8F"></rect>
<rect id="F-009" x="159" y="61" width="18" height="44" transform="rotate(90 159 61)" fill="#84CE8F"></rect>
<rect id="F-008" x="159" y="83" width="18" height="44" transform="rotate(90 159 83)" fill="#84CE8F"></rect>
<rect id="F-007" x="159" y="114" width="18" height="44" transform="rotate(90 159 114)" fill="#84CE8F"></rect>
<rect id="F-006" x="159" y="136" width="18" height="44" transform="rotate(90 159 136)" fill="#84CE8F"></rect>
<rect id="E-010" x="278" y="12" width="25" height="37" fill="#84CE8F"></rect>
<rect id="E-009" x="308" y="12" width="25" height="37" fill="#84CE8F"></rect>
<rect id="E-008" x="338" y="12" width="25" height="37" fill="#84CE8F"></rect>
<rect id="E-007" x="368" y="12" width="25" height="37" fill="#84CE8F"></rect>
<rect id="E-006" x="398" y="12" width="25" height="37" fill="#84CE8F"></rect>
<rect id="E-005" x="428" y="12" width="25" height="37" fill="#84CE8F"></rect>
<rect id="E-004" x="458" y="12" width="25" height="37" fill="#84CE8F"></rect>
<rect id="E-003" x="488" y="12" width="25" height="37" fill="#84CE8F"></rect>
<rect id="E-002" x="518" y="12" width="25" height="37" fill="#84CE8F"></rect>
<rect id="E-001" x="548" y="12" width="25" height="37" fill="#84CE8F"></rect>
<rect id="C-023" x="324" y="225" width="25" height="37" fill="#84CE8F"></rect>
<rect id="C-022" x="354" y="225" width="25" height="37" fill="#84CE8F"></rect>
<rect id="C-021" x="384" y="225" width="25" height="37" fill="#84CE8F"></rect>
<rect id="C-020" x="414" y="225" width="25" height="37" fill="#84CE8F"></rect>
<rect id="C-019" x="444" y="225" width="25" height="37" fill="#84CE8F"></rect>
<rect id="C-018" x="474" y="225" width="25" height="37" fill="#84CE8F"></rect>
<rect id="C-017" x="504" y="225" width="25" height="37" fill="#84CE8F"></rect>
<rect id="C-016" x="534" y="225" width="25" height="37" fill="#84CE8F"></rect>
<rect id="C-015" x="564" y="225" width="25" height="37" fill="#84CE8F"></rect>
<rect id="C-014" x="594" y="225" width="25" height="37" fill="#84CE8F"></rect>
<rect id="C-013" x="624" y="225" width="25" height="37" fill="#84CE8F"></rect>
<rect id="C-012" x="324" y="269" width="25" height="37" fill="#84CE8F"></rect>
<rect id="C-011" x="354" y="269" width="25" height="37" fill="#84CE8F"></rect>
<rect id="C-010" x="384" y="269" width="25" height="37" fill="#84CE8F"></rect>
<rect id="C-009" x="414" y="269" width="25" height="37" fill="#84CE8F"></rect>
<rect id="C-008" x="444" y="269" width="25" height="37" fill="#84CE8F"></rect>
<rect id="C-007" x="474" y="269" width="25" height="37" fill="#84CE8F"></rect>
<rect id="C-006" x="504" y="269" width="25" height="37" fill="#84CE8F"></rect>
<rect id="C-005" x="534" y="269" width="25" height="37" fill="#84CE8F"></rect>
<rect id="C-004" x="564" y="269" width="25" height="37" fill="#84CE8F"></rect>
<rect id="C-003" x="594" y="269" width="25" height="37" fill="#84CE8F"></rect>
<rect id="C-002" x="624" y="269" width="25" height="37" fill="#84CE8F"></rect>
<rect id="C-001" x="654" y="269" width="25" height="37" fill="#84CE8F"></rect>
<rect id="B-028" x="324" y="331" width="25" height="38" fill="#84CE8F"></rect>
<rect id="B-027" x="354" y="331" width="25" height="38" fill="#84CE8F"></rect>
<rect id="B-026" x="384" y="331" width="25" height="38" fill="#84CE8F"></rect>
<rect id="B-025" x="414" y="331" width="25" height="38" fill="#84CE8F"></rect>
<rect id="B-024" x="444" y="331" width="25" height="38" fill="#84CE8F"></rect>
<rect id="B-023" x="474" y="331" width="25" height="38" fill="#84CE8F"></rect>
<rect id="B-022" x="504" y="331" width="25" height="38" fill="#84CE8F"></rect>
<rect id="B-021" x="534" y="331" width="25" height="38" fill="#84CE8F"></rect>
<rect id="B-020" x="564" y="331" width="25" height="38" fill="#84CE8F"></rect>
<rect id="B-019" x="594" y="331" width="25" height="38" fill="#84CE8F"></rect>
<rect id="B-018" x="624" y="331" width="25" height="38" fill="#84CE8F"></rect>
<rect id="B-017" x="654" y="331" width="25" height="38" fill="#84CE8F"></rect>
<rect id="B-016" x="684" y="331" width="25" height="38" fill="#84CE8F"></rect>
<rect id="B-015" x="714" y="331" width="25" height="38" fill="#84CE8F"></rect>
<rect id="B-014" x="324" y="376" width="25" height="37" fill="#84CE8F"></rect>
<rect id="B-013" x="354" y="376" width="25" height="37" fill="#84CE8F"></rect>
<rect id="B-012" x="384" y="376" width="25" height="37" fill="#84CE8F"></rect>
<rect id="B-011" x="414" y="376" width="25" height="37" fill="#84CE8F"></rect>
<rect id="B-010" x="444" y="376" width="25" height="37" fill="#84CE8F"></rect>
<rect id="B-009" x="474" y="376" width="25" height="37" fill="#84CE8F"></rect>
<rect id="B-008" x="504" y="376" width="25" height="37" fill="#84CE8F"></rect>
<rect id="B-007" x="534" y="376" width="25" height="37" fill="#84CE8F"></rect>
<rect id="B-006" x="564" y="376" width="25" height="37" fill="#84CE8F"></rect>
<rect id="B-005" x="594" y="376" width="25" height="37" fill="#84CE8F"></rect>
<rect id="B-004" x="624" y="376" width="25" height="37" fill="#84CE8F"></rect>
<rect id="B-003" x="654" y="376" width="25" height="37" fill="#84CE8F"></rect>
<rect id="B-002" x="684" y="376" width="25" height="37" fill="#84CE8F"></rect>
<rect id="B-001" x="714" y="376" width="25" height="37" fill="#84CE8F"></rect>
<rect id="A-017" x="324" y="438" width="25" height="37" fill="#84CE8F"></rect>
<rect id="A-016" x="353" y="438" width="25" height="37" fill="#84CE8F"></rect>
<rect id="A-015" x="382" y="438" width="25" height="37" fill="#84CE8F"></rect>
<rect id="A-014" x="411" y="438" width="25" height="37" fill="#84CE8F"></rect>
<rect id="A-013" x="440" y="438" width="25" height="37" fill="#84CE8F"></rect>
<rect id="A-012" x="469" y="438" width="25" height="37" fill="#84CE8F"></rect>
<rect id="A-011" x="498" y="438" width="25" height="37" fill="#84CE8F"></rect>
<rect id="A-010" x="527" y="438" width="25" height="37" fill="#84CE8F"></rect>
<rect id="A-009" x="556" y="438" width="25" height="37" fill="#84CE8F"></rect>
<rect id="A-008" x="585" y="438" width="25" height="37" fill="#84CE8F"></rect>
<rect id="A-007" x="614" y="438" width="25" height="37" fill="#84CE8F"></rect>
<rect id="A-006" x="643" y="438" width="25" height="37" fill="#84CE8F"></rect>
<rect id="A-005" x="672" y="438" width="25" height="37" fill="#84CE8F"></rect>
<rect id="A-004" x="701" y="438" width="25" height="37" fill="#84CE8F"></rect>
<rect id="A-003" x="730" y="438" width="25" height="37" fill="#84CE8F"></rect>
<rect id="A-002" x="759" y="438" width="25" height="37" fill="#84CE8F"></rect>
<rect id="A-001" x="788" y="438" width="25" height="37" fill="#84CE8F"></rect>
<rect id="D-021" x="308" y="162" width="25" height="38" fill="#84CE8F"></rect>
<rect id="D-020" x="338" y="162" width="25" height="38" fill="#84CE8F"></rect>
<rect id="D-019" x="368" y="162" width="25" height="38" fill="#84CE8F"></rect>
<rect id="D-018" x="398" y="162" width="25" height="38" fill="#84CE8F"></rect>
<rect id="D-017" x="428" y="162" width="25" height="38" fill="#84CE8F"></rect>
<rect id="D-016" x="458" y="162" width="25" height="38" fill="#84CE8F"></rect>
<rect id="D-015" x="488" y="162" width="25" height="38" fill="#84CE8F"></rect>
<rect id="D-014" x="518" y="162" width="25" height="38" fill="#84CE8F"></rect>
<rect id="D-013" x="548" y="162" width="25" height="38" fill="#84CE8F"></rect>
<rect id="D-012" x="578" y="162" width="25" height="38" fill="#84CE8F"></rect>
<rect id="D-011" x="278" y="119" width="25" height="36" fill="#84CE8F"></rect>
<rect id="D-010" x="308" y="119" width="25" height="36" fill="#84CE8F"></rect>
<rect id="D-009" x="338" y="119" width="25" height="36" fill="#84CE8F"></rect>
<rect id="D-008" x="368" y="119" width="25" height="36" fill="#84CE8F"></rect>
<rect id="D-007" x="398" y="119" width="25" height="36" fill="#84CE8F"></rect>
<rect id="D-006" x="428" y="119" width="25" height="36" fill="#84CE8F"></rect>
<rect id="D-005" x="458" y="119" width="25" height="36" fill="#84CE8F"></rect>
<rect id="D-004" x="488" y="119" width="25" height="36" fill="#84CE8F"></rect>
<rect id="D-003" x="518" y="119" width="25" height="36" fill="#84CE8F"></rect>
<path id="D-002" d="M578 119H603V155H578V119Z" fill="#84CE8F"></path>
<rect id="D-001" x="548" y="119" width="25" height="36" fill="#84CE8F"></rect>
<rect id="F-005" x="11" y="160" width="20" height="37" fill="#84CE8F"></rect>
<rect id="F-004" x="37" y="160" width="20" height="37" fill="#84CE8F"></rect>
<rect id="F-003" x="63" y="160" width="20" height="37" fill="#84CE8F"></rect>
<rect id="F-002" x="89" y="160" width="20" height="37" fill="#84CE8F"></rect>
<rect id="F-001" x="115" y="160" width="25" height="37" fill="#84CE8F"></rect>
<rect id="grassBG_2" x="-8" y="39" width="116" height="115" fill="#898989"></rect>
<rect id="grassBG_3" x="-8" y="241" width="116" height="251" fill="#898989"></rect>
<rect id="grassBG_4" x="314" y="438" width="7" height="48" fill="#BABABA"></rect>
<rect id="grassBG_5" x="318" y="479" width="495" height="7" fill="#BABABA"></rect>
<rect id="grassBG_6" width="19.386" height="62.618" transform="matrix(0.855369 -0.518019 0.482195 0.876064 851.148 358.143)" fill="#7E9E66"></rect>
<rect id="grassBG_7" width="48.7021" height="62.618" transform="matrix(0.855369 -0.518019 0.482195 0.876064 851.148 358.143)" fill="#7E9E66"></rect>
<rect id="grassBG_8" width="62.4353" height="99.095" transform="matrix(0.934229 -0.356674 0.327813 0.944742 820.169 266.8)" fill="#7E9E66"></rect>
<rect id="grassBG_9" width="80.7802" height="99.4906" transform="matrix(0.983322 -0.181873 0.165774 0.986164 805.015 170.054)" fill="#7E9E66"></rect>
<rect id="grassBG_10" width="86.1436" height="31.8658" transform="matrix(0.995815 -0.0913867 0.0831178 0.99654 801.971 140.296)" fill="#7E9E66"></rect>
<rect id="grassBG_11" width="3.07996" height="38.4472" transform="matrix(0.986479 -0.16389 0.149302 0.988792 800 142.661)" fill="#BABABA"></rect>
<rect id="grassBG_12" x="800" y="87" width="81" height="57" fill="#7E9E66"></rect>
<rect id="grassBG_13" x="800" y="87" width="3" height="57" fill="#BABABA"></rect>
<rect id="grassBG_14" width="4.66631" height="62.618" transform="matrix(0.855369 -0.518019 0.482195 0.876064 851.148 358.143)" fill="#BABABA"></rect>
<rect id="grassBG_15" width="3.76536" height="99.095" transform="matrix(0.934229 -0.356674 0.327813 0.944742 820.169 266.8)" fill="#BABABA"></rect>
<rect id="grassBG_16" width="3.57493" height="99.4906" transform="matrix(0.983322 -0.181873 0.165774 0.986164 804 170.054)" fill="#BABABA"></rect>
<rect id="grassBG_17" x="798.004" y="52.6455" width="81" height="47.1127" transform="rotate(-8 798.004 52.6455)" fill="#7E9E66"></rect>
<rect id="grassBG_18" x="795.111" y="53.052" width="2.99759" height="34.8587" transform="rotate(-8 795.111 53.052)" fill="#BABABA"></rect>
<rect id="grassBG_19" x="782.818" y="-2.13794" width="82.3553" height="77.2884" transform="rotate(-15 782.818 -2.13794)" fill="#7E9E66"></rect>
<rect id="grassBG_20" x="780.408" y="-1.43945" width="2.91431" height="57.1139" transform="rotate(-15 780.408 -1.43945)" fill="#BABABA"></rect>
</g>
<defs>
<clipPath id="clip0_37_343">
<rect width="861" height="484" fill="white"></rect>
</clipPath>
</defs>
</svg>