<svg width="861" height="484" viewBox="0 0 861 484" fill="none" xmlns="http://www.w3.org/2000/svg">
<g id="GeneralParking3" clip-path="url(#clip0_37_351)">
<rect width="861" height="484" fill="white"></rect>
<rect id="grassBG" width="861" height="484" fill="#D9D9D9"></rect>
<rect id="D-091" x="41" y="66" width="13" height="28" fill="#84CE8F"></rect>
<rect id="D-090" x="58" y="66" width="13" height="28" fill="#84CE8F"></rect>
<rect id="D-089" x="75" y="66" width="13" height="28" fill="#84CE8F"></rect>
<rect id="D-088" x="92" y="66" width="14" height="28" fill="#84CE8F"></rect>
<rect id="D-087" x="109" y="66" width="14" height="28" fill="#84CE8F"></rect>
<rect id="D-086" x="126" y="66" width="14" height="28" fill="#84CE8F"></rect>
<rect id="D-085" x="143" y="66" width="14" height="28" fill="#84CE8F"></rect>
<rect id="D-084" x="160" y="66" width="14" height="28" fill="#84CE8F"></rect>
<rect id="D-083" x="177" y="66" width="14" height="28" fill="#84CE8F"></rect>
<rect id="D-082" x="194" y="66" width="14" height="28" fill="#84CE8F"></rect>
<rect id="D-081" x="211" y="66" width="14" height="28" fill="#84CE8F"></rect>
<rect id="D-080" x="228" y="66" width="14" height="28" fill="#84CE8F"></rect>
<rect id="D-079" x="245" y="66" width="14" height="28" fill="#84CE8F"></rect>
<rect id="D-078" x="262" y="66" width="14" height="28" fill="#84CE8F"></rect>
<rect id="D-077" x="279" y="66" width="14" height="28" fill="#84CE8F"></rect>
<rect id="D-076" x="296" y="66" width="14" height="28" fill="#84CE8F"></rect>
<rect id="D-075" x="313" y="66" width="14" height="28" fill="#84CE8F"></rect>
<rect id="D-074" x="330" y="66" width="14" height="28" fill="#84CE8F"></rect>
<rect id="D-073" x="347" y="66" width="14" height="28" fill="#84CE8F"></rect>
<rect id="D-072" x="364" y="66" width="14" height="28" fill="#84CE8F"></rect>
<rect id="D-071" x="382" y="66" width="13" height="28" fill="#84CE8F"></rect>
<rect id="D-070" x="399" y="66" width="13" height="28" fill="#84CE8F"></rect>
<rect id="C-085" x="43" y="135" width="13" height="28" fill="#84CE8F"></rect>
<rect id="C-084" x="60" y="135" width="13" height="28" fill="#84CE8F"></rect>
<rect id="C-083" x="76" y="135" width="14" height="28" fill="#84CE8F"></rect>
<rect id="C-082" x="94" y="135" width="13" height="28" fill="#84CE8F"></rect>
<rect id="C-081" x="111" y="135" width="13" height="28" fill="#84CE8F"></rect>
<rect id="C-080" x="128" y="135" width="13" height="28" fill="#84CE8F"></rect>
<rect id="C-079" x="145" y="135" width="13" height="28" fill="#84CE8F"></rect>
<rect id="C-078" x="161" y="135" width="14" height="28" fill="#84CE8F"></rect>
<rect id="C-077" x="178" y="135" width="14" height="28" fill="#84CE8F"></rect>
<rect id="C-076" x="195" y="135" width="14" height="28" fill="#84CE8F"></rect>
<rect id="C-075" x="213" y="135" width="13" height="28" fill="#84CE8F"></rect>
<rect id="C-074" x="230" y="135" width="13" height="28" fill="#84CE8F"></rect>
<rect id="C-073" x="246" y="135" width="15" height="28" fill="#84CE8F"></rect>
<rect id="C-072" x="264" y="135" width="14" height="28" fill="#84CE8F"></rect>
<rect id="C-071" x="280" y="135" width="14" height="28" fill="#84CE8F"></rect>
<rect id="C-070" x="297" y="135" width="15" height="28" fill="#84CE8F"></rect>
<rect id="C-069" x="315" y="135" width="14" height="28" fill="#84CE8F"></rect>
<rect id="C-068" x="41" y="174" width="13" height="28" fill="#84CE8F"></rect>
<rect id="C-067" x="58" y="174" width="13" height="28" fill="#84CE8F"></rect>
<rect id="C-066" x="75" y="174" width="13" height="28" fill="#84CE8F"></rect>
<rect id="C-065" x="92" y="174" width="14" height="28" fill="#84CE8F"></rect>
<rect id="C-064" x="109" y="174" width="14" height="28" fill="#84CE8F"></rect>
<rect id="C-063" x="126" y="174" width="14" height="28" fill="#84CE8F"></rect>
<rect id="C-062" x="143" y="174" width="14" height="28" fill="#84CE8F"></rect>
<rect id="C-061" x="160" y="174" width="14" height="28" fill="#84CE8F"></rect>
<rect id="C-060" x="177" y="174" width="14" height="28" fill="#84CE8F"></rect>
<rect id="C-059" x="194" y="174" width="14" height="28" fill="#84CE8F"></rect>
<rect id="C-058" x="211" y="174" width="14" height="28" fill="#84CE8F"></rect>
<rect id="C-057" x="228" y="174" width="14" height="28" fill="#84CE8F"></rect>
<rect id="C-056" x="245" y="174" width="14" height="28" fill="#84CE8F"></rect>
<rect id="C-055" x="262" y="174" width="14" height="28" fill="#84CE8F"></rect>
<rect id="C-054" x="278" y="174" width="15" height="28" fill="#84CE8F"></rect>
<rect id="C-053" x="296" y="174" width="14" height="28" fill="#84CE8F"></rect>
<rect id="C-052" x="313" y="174" width="14" height="28" fill="#84CE8F"></rect>
<rect id="C-051" x="332" y="174" width="14" height="28" fill="#84CE8F"></rect>
<rect id="C-050" x="349" y="174" width="14" height="28" fill="#84CE8F"></rect>
<rect id="C-049" x="365" y="174" width="15" height="28" fill="#84CE8F"></rect>
<rect id="C-048" x="383" y="174" width="14" height="28" fill="#84CE8F"></rect>
<rect id="C-047" x="400" y="174" width="14" height="28" fill="#84CE8F"></rect>
<rect id="C-046" x="417" y="174" width="14" height="28" fill="#84CE8F"></rect>
<rect id="C-045" x="332" y="135" width="13" height="28" fill="#84CE8F"></rect>
<rect id="C-044" x="348" y="135" width="15" height="28" fill="#84CE8F"></rect>
<rect id="C-043" x="366" y="135" width="13" height="28" fill="#84CE8F"></rect>
<rect id="C-042" x="383" y="135" width="14" height="28" fill="#84CE8F"></rect>
<rect id="C-041" x="399" y="135" width="15" height="28" fill="#84CE8F"></rect>
<rect id="C-040" x="417" y="135" width="15" height="28" fill="#84CE8F"></rect>
<rect id="D-069" x="416" y="66" width="13" height="28" fill="#84CE8F"></rect>
<rect id="D-068" x="41" y="26" width="13" height="28" fill="#84CE8F"></rect>
<rect id="D-067" x="58" y="26" width="13" height="28" fill="#84CE8F"></rect>
<rect id="D-066" x="75" y="26" width="13" height="28" fill="#84CE8F"></rect>
<rect id="D-065" x="92" y="26" width="14" height="28" fill="#84CE8F"></rect>
<rect id="D-064" x="109" y="26" width="14" height="28" fill="#84CE8F"></rect>
<rect id="D-063" x="126" y="26" width="14" height="28" fill="#84CE8F"></rect>
<rect id="D-062" x="143" y="26" width="14" height="28" fill="#84CE8F"></rect>
<rect id="D-061" x="160" y="26" width="14" height="28" fill="#84CE8F"></rect>
<rect id="D-060" x="177" y="26" width="14" height="28" fill="#84CE8F"></rect>
<rect id="D-059" x="194" y="26" width="14" height="28" fill="#84CE8F"></rect>
<rect id="D-058" x="211" y="26" width="14" height="28" fill="#84CE8F"></rect>
<rect id="D-057" x="228" y="26" width="14" height="28" fill="#84CE8F"></rect>
<rect id="D-056" x="245" y="26" width="14" height="28" fill="#84CE8F"></rect>
<rect id="D-055" x="262" y="26" width="14" height="28" fill="#84CE8F"></rect>
<rect id="D-054" x="279" y="26" width="14" height="28" fill="#84CE8F"></rect>
<rect id="D-053" x="296" y="26" width="14" height="28" fill="#84CE8F"></rect>
<rect id="D-052" x="313" y="26" width="14" height="28" fill="#84CE8F"></rect>
<rect id="D-051" x="330" y="26" width="14" height="28" fill="#84CE8F"></rect>
<rect id="D-050" x="347" y="26" width="14" height="28" fill="#84CE8F"></rect>
<rect id="D-049" x="364" y="26" width="14" height="28" fill="#84CE8F"></rect>
<rect id="D-048" x="382" y="26" width="13" height="28" fill="#84CE8F"></rect>
<rect id="D-047" x="399" y="26" width="13" height="28" fill="#84CE8F"></rect>
<rect id="D-046" x="416" y="26" width="13" height="28" fill="#84CE8F"></rect>
<rect id="D-045" x="432" y="66" width="13" height="28" fill="#84CE8F"></rect>
<rect id="D-044" x="449" y="66" width="13" height="28" fill="#84CE8F"></rect>
<rect id="D-043" x="466" y="66" width="13" height="28" fill="#84CE8F"></rect>
<rect id="D-042" x="483" y="66" width="14" height="28" fill="#84CE8F"></rect>
<rect id="D-041" x="500" y="66" width="14" height="28" fill="#84CE8F"></rect>
<rect id="D-040" x="517" y="66" width="14" height="28" fill="#84CE8F"></rect>
<rect id="D-039" x="534" y="66" width="14" height="28" fill="#84CE8F"></rect>
<rect id="D-038" x="551" y="66" width="14" height="28" fill="#84CE8F"></rect>
<rect id="D-037" x="568" y="66" width="14" height="28" fill="#84CE8F"></rect>
<rect id="D-036" x="585" y="66" width="14" height="28" fill="#84CE8F"></rect>
<rect id="D-035" x="602" y="66" width="14" height="28" fill="#84CE8F"></rect>
<rect id="D-034" x="619" y="66" width="14" height="28" fill="#84CE8F"></rect>
<rect id="D-033" x="636" y="66" width="14" height="28" fill="#84CE8F"></rect>
<rect id="D-032" x="653" y="66" width="14" height="28" fill="#84CE8F"></rect>
<rect id="D-031" x="670" y="66" width="14" height="28" fill="#84CE8F"></rect>
<rect id="D-030" x="687" y="66" width="14" height="28" fill="#84CE8F"></rect>
<rect id="D-029" x="704" y="66" width="14" height="28" fill="#84CE8F"></rect>
<rect id="D-028" x="721" y="66" width="14" height="28" fill="#84CE8F"></rect>
<rect id="D-027" x="738" y="66" width="14" height="28" fill="#84CE8F"></rect>
<rect id="D-026" x="755" y="66" width="14" height="28" fill="#84CE8F"></rect>
<rect id="D-025" x="773" y="66" width="13" height="28" fill="#84CE8F"></rect>
<rect id="D-024" x="790" y="66" width="13" height="28" fill="#84CE8F"></rect>
<rect id="C-039" x="434" y="135" width="13" height="28" fill="#84CE8F"></rect>
<rect id="C-038" x="451" y="135" width="13" height="28" fill="#84CE8F"></rect>
<rect id="C-037" x="467" y="135" width="14" height="28" fill="#84CE8F"></rect>
<rect id="C-036" x="485" y="135" width="13" height="28" fill="#84CE8F"></rect>
<rect id="C-035" x="502" y="135" width="13" height="28" fill="#84CE8F"></rect>
<rect id="C-034" x="519" y="135" width="13" height="28" fill="#84CE8F"></rect>
<rect id="C-033" x="536" y="135" width="13" height="28" fill="#84CE8F"></rect>
<rect id="C-032" x="552" y="135" width="14" height="28" fill="#84CE8F"></rect>
<rect id="C-031" x="569" y="135" width="14" height="28" fill="#84CE8F"></rect>
<rect id="C-030" x="586" y="135" width="14" height="28" fill="#84CE8F"></rect>
<rect id="C-029" x="604" y="135" width="13" height="28" fill="#84CE8F"></rect>
<rect id="C-028" x="621" y="135" width="13" height="28" fill="#84CE8F"></rect>
<rect id="C-027" x="637" y="135" width="15" height="28" fill="#84CE8F"></rect>
<rect id="C-026" x="655" y="135" width="14" height="28" fill="#84CE8F"></rect>
<rect id="C-025" x="671" y="135" width="14" height="28" fill="#84CE8F"></rect>
<rect id="C-024" x="688" y="135" width="15" height="28" fill="#84CE8F"></rect>
<rect id="C-023" x="706" y="135" width="14" height="28" fill="#84CE8F"></rect>
<rect id="C-022" x="434" y="174" width="13" height="28" fill="#84CE8F"></rect>
<rect id="C-021" x="449" y="174" width="13" height="28" fill="#84CE8F"></rect>
<rect id="C-020" x="466" y="174" width="13" height="28" fill="#84CE8F"></rect>
<rect id="C-019" x="483" y="174" width="14" height="28" fill="#84CE8F"></rect>
<rect id="C-018" x="500" y="174" width="14" height="28" fill="#84CE8F"></rect>
<rect id="C-017" x="517" y="174" width="14" height="28" fill="#84CE8F"></rect>
<rect id="C-016" x="534" y="174" width="14" height="28" fill="#84CE8F"></rect>
<rect id="C-015" x="551" y="174" width="14" height="28" fill="#84CE8F"></rect>
<rect id="C-014" x="568" y="174" width="14" height="28" fill="#84CE8F"></rect>
<rect id="C-013" x="585" y="174" width="14" height="28" fill="#84CE8F"></rect>
<rect id="C-012" x="602" y="174" width="14" height="28" fill="#84CE8F"></rect>
<rect id="C-011" x="619" y="174" width="14" height="28" fill="#84CE8F"></rect>
<rect id="C-010" x="636" y="174" width="14" height="28" fill="#84CE8F"></rect>
<rect id="C-009" x="653" y="174" width="14" height="28" fill="#84CE8F"></rect>
<rect id="C-008" x="669" y="174" width="15" height="28" fill="#84CE8F"></rect>
<rect id="C-007" x="687" y="174" width="14" height="28" fill="#84CE8F"></rect>
<rect id="C-006" x="704" y="174" width="14" height="28" fill="#84CE8F"></rect>
<rect id="C-005" x="723" y="135" width="13" height="28" fill="#84CE8F"></rect>
<rect id="C-004" x="739" y="135" width="15" height="28" fill="#84CE8F"></rect>
<rect id="C-003" x="757" y="135" width="13" height="28" fill="#84CE8F"></rect>
<rect id="C-002" x="774" y="135" width="14" height="28" fill="#84CE8F"></rect>
<rect id="C-001" x="790" y="135" width="15" height="28" fill="#84CE8F"></rect>
<rect id="D-023" x="807" y="66" width="13" height="28" fill="#84CE8F"></rect>
<rect id="D-022" x="432" y="26" width="13" height="28" fill="#84CE8F"></rect>
<rect id="D-021" x="449" y="26" width="13" height="28" fill="#84CE8F"></rect>
<rect id="D-020" x="466" y="26" width="13" height="28" fill="#84CE8F"></rect>
<rect id="D-019" x="483" y="26" width="14" height="28" fill="#84CE8F"></rect>
<rect id="D-018" x="500" y="26" width="14" height="28" fill="#84CE8F"></rect>
<rect id="D-017" x="517" y="26" width="14" height="28" fill="#84CE8F"></rect>
<rect id="D-016" x="534" y="26" width="14" height="28" fill="#84CE8F"></rect>
<rect id="D-015" x="551" y="26" width="14" height="28" fill="#84CE8F"></rect>
<rect id="D-014" x="568" y="26" width="14" height="28" fill="#84CE8F"></rect>
<rect id="D-013" x="585" y="26" width="14" height="28" fill="#84CE8F"></rect>
<rect id="D-012" x="602" y="26" width="14" height="28" fill="#84CE8F"></rect>
<rect id="D-011" x="619" y="26" width="14" height="28" fill="#84CE8F"></rect>
<rect id="D-010" x="636" y="26" width="14" height="28" fill="#84CE8F"></rect>
<rect id="D-009" x="653" y="26" width="14" height="28" fill="#84CE8F"></rect>
<rect id="D-008" x="670" y="26" width="14" height="28" fill="#84CE8F"></rect>
<rect id="D-007" x="687" y="26" width="14" height="28" fill="#84CE8F"></rect>
<rect id="D-006" x="704" y="26" width="14" height="28" fill="#84CE8F"></rect>
<rect id="D-005" x="721" y="26" width="14" height="28" fill="#84CE8F"></rect>
<rect id="D-004" x="738" y="26" width="14" height="28" fill="#84CE8F"></rect>
<rect id="D-003" x="755" y="26" width="14" height="28" fill="#84CE8F"></rect>
<rect id="D-002" x="773" y="26" width="13" height="28" fill="#84CE8F"></rect>
<rect id="D-001" x="790" y="26" width="13" height="28" fill="#84CE8F"></rect>
<rect id="B-092" x="41" y="282" width="13" height="28" fill="#84CE8F"></rect>
<rect id="B-091" x="58" y="282" width="13" height="28" fill="#84CE8F"></rect>
<rect id="B-090" x="75" y="282" width="13" height="28" fill="#84CE8F"></rect>
<rect id="B-089" x="92" y="282" width="14" height="28" fill="#84CE8F"></rect>
<rect id="B-088" x="109" y="282" width="14" height="28" fill="#84CE8F"></rect>
<rect id="B-087" x="126" y="282" width="14" height="28" fill="#84CE8F"></rect>
<rect id="B-086" x="143" y="282" width="14" height="28" fill="#84CE8F"></rect>
<rect id="B-085" x="160" y="282" width="14" height="28" fill="#84CE8F"></rect>
<rect id="B-084" x="177" y="282" width="14" height="28" fill="#84CE8F"></rect>
<rect id="B-083" x="194" y="282" width="14" height="28" fill="#84CE8F"></rect>
<rect id="B-082" x="211" y="282" width="14" height="28" fill="#84CE8F"></rect>
<rect id="B-081" x="228" y="282" width="14" height="28" fill="#84CE8F"></rect>
<rect id="B-080" x="245" y="282" width="14" height="28" fill="#84CE8F"></rect>
<rect id="B-079" x="262" y="282" width="14" height="28" fill="#84CE8F"></rect>
<rect id="B-078" x="279" y="282" width="14" height="28" fill="#84CE8F"></rect>
<rect id="B-077" x="296" y="282" width="14" height="28" fill="#84CE8F"></rect>
<rect id="B-076" x="313" y="282" width="14" height="28" fill="#84CE8F"></rect>
<rect id="B-075" x="330" y="282" width="14" height="28" fill="#84CE8F"></rect>
<rect id="B-074" x="347" y="282" width="14" height="28" fill="#84CE8F"></rect>
<rect id="B-073" x="364" y="282" width="14" height="28" fill="#84CE8F"></rect>
<rect id="B-072" x="382" y="282" width="13" height="28" fill="#84CE8F"></rect>
<rect id="B-071" x="399" y="282" width="13" height="28" fill="#84CE8F"></rect>
<rect id="A-045" x="58" y="404" width="13" height="28" fill="#84CE8F"></rect>
<rect id="A-044" x="75" y="404" width="13" height="28" fill="#84CE8F"></rect>
<rect id="A-043" x="91" y="404" width="14" height="28" fill="#84CE8F"></rect>
<rect id="A-042" x="109" y="404" width="13" height="28" fill="#84CE8F"></rect>
<rect id="A-041" x="126" y="404" width="13" height="28" fill="#84CE8F"></rect>
<rect id="A-040" x="143" y="404" width="13" height="28" fill="#84CE8F"></rect>
<rect id="A-039" x="160" y="404" width="13" height="28" fill="#84CE8F"></rect>
<rect id="A-038" x="176" y="404" width="14" height="28" fill="#84CE8F"></rect>
<rect id="A-037" x="193" y="404" width="14" height="28" fill="#84CE8F"></rect>
<rect id="A-036" x="210" y="404" width="14" height="28" fill="#84CE8F"></rect>
<rect id="A-035" x="228" y="404" width="13" height="28" fill="#84CE8F"></rect>
<rect id="A-034" x="245" y="404" width="13" height="28" fill="#84CE8F"></rect>
<rect id="A-033" x="261" y="404" width="15" height="28" fill="#84CE8F"></rect>
<rect id="A-032" x="279" y="404" width="14" height="28" fill="#84CE8F"></rect>
<rect id="A-031" x="295" y="404" width="14" height="28" fill="#84CE8F"></rect>
<rect id="A-030" x="312" y="404" width="15" height="28" fill="#84CE8F"></rect>
<rect id="A-029" x="330" y="404" width="14" height="28" fill="#84CE8F"></rect>
<rect id="A-028" x="41" y="404" width="13" height="28" fill="#84CE8F"></rect>
<rect id="A-027" x="347" y="404" width="13" height="28" fill="#84CE8F"></rect>
<rect id="A-026" x="363" y="404" width="15" height="28" fill="#84CE8F"></rect>
<rect id="A-025" x="381" y="404" width="13" height="28" fill="#84CE8F"></rect>
<rect id="A-024" x="398" y="404" width="14" height="28" fill="#84CE8F"></rect>
<rect id="A-023" x="414" y="404" width="15" height="28" fill="#84CE8F"></rect>
<rect id="A-022" x="432" y="404" width="15" height="28" fill="#84CE8F"></rect>
<rect id="B-070" x="416" y="282" width="13" height="28" fill="#84CE8F"></rect>
<rect id="B-069" x="41" y="242" width="13" height="28" fill="#84CE8F"></rect>
<rect id="B-068" x="58" y="242" width="13" height="28" fill="#84CE8F"></rect>
<rect id="B-067" x="75" y="242" width="13" height="28" fill="#84CE8F"></rect>
<rect id="B-066" x="92" y="242" width="14" height="28" fill="#84CE8F"></rect>
<rect id="B-065" x="109" y="242" width="14" height="28" fill="#84CE8F"></rect>
<rect id="B-064" x="126" y="242" width="14" height="28" fill="#84CE8F"></rect>
<rect id="B-063" x="143" y="242" width="14" height="28" fill="#84CE8F"></rect>
<rect id="B-062" x="160" y="242" width="14" height="28" fill="#84CE8F"></rect>
<rect id="B-061" x="177" y="242" width="14" height="28" fill="#84CE8F"></rect>
<rect id="B-060" x="194" y="242" width="14" height="28" fill="#84CE8F"></rect>
<rect id="B-059" x="211" y="242" width="14" height="28" fill="#84CE8F"></rect>
<rect id="B-058" x="228" y="242" width="14" height="28" fill="#84CE8F"></rect>
<rect id="B-057" x="245" y="242" width="14" height="28" fill="#84CE8F"></rect>
<rect id="B-056" x="262" y="242" width="14" height="28" fill="#84CE8F"></rect>
<rect id="B-055" x="279" y="242" width="14" height="28" fill="#84CE8F"></rect>
<rect id="B-054" x="296" y="242" width="14" height="28" fill="#84CE8F"></rect>
<rect id="B-053" x="313" y="242" width="14" height="28" fill="#84CE8F"></rect>
<rect id="B-052" x="330" y="242" width="14" height="28" fill="#84CE8F"></rect>
<rect id="B-051" x="347" y="242" width="14" height="28" fill="#84CE8F"></rect>
<rect id="B-050" x="364" y="242" width="14" height="28" fill="#84CE8F"></rect>
<rect id="B-049" x="382" y="242" width="13" height="28" fill="#84CE8F"></rect>
<rect id="B-048" x="399" y="242" width="13" height="28" fill="#84CE8F"></rect>
<rect id="B-047" x="416" y="242" width="13" height="28" fill="#84CE8F"></rect>
<rect id="B-046" x="432" y="282" width="13" height="28" fill="#84CE8F"></rect>
<rect id="B-045" x="449" y="282" width="13" height="28" fill="#84CE8F"></rect>
<rect id="B-044" x="466" y="282" width="13" height="28" fill="#84CE8F"></rect>
<rect id="B-043" x="483" y="282" width="14" height="28" fill="#84CE8F"></rect>
<rect id="B-042" x="500" y="282" width="14" height="28" fill="#84CE8F"></rect>
<rect id="B-041" x="517" y="282" width="14" height="28" fill="#84CE8F"></rect>
<rect id="B-040" x="534" y="282" width="14" height="28" fill="#84CE8F"></rect>
<rect id="B-039" x="551" y="282" width="14" height="28" fill="#84CE8F"></rect>
<rect id="B-038" x="568" y="282" width="14" height="28" fill="#84CE8F"></rect>
<rect id="B-037" x="585" y="282" width="14" height="28" fill="#84CE8F"></rect>
<rect id="B-036" x="602" y="282" width="14" height="28" fill="#84CE8F"></rect>
<rect id="B-035" x="619" y="282" width="14" height="28" fill="#84CE8F"></rect>
<rect id="B-034" x="636" y="282" width="14" height="28" fill="#84CE8F"></rect>
<rect id="B-033" x="653" y="282" width="14" height="28" fill="#84CE8F"></rect>
<rect id="B-032" x="670" y="282" width="14" height="28" fill="#84CE8F"></rect>
<rect id="B-031" x="687" y="282" width="14" height="28" fill="#84CE8F"></rect>
<rect id="B-030" x="704" y="282" width="14" height="28" fill="#84CE8F"></rect>
<rect id="B-029" x="721" y="282" width="14" height="28" fill="#84CE8F"></rect>
<rect id="B-028" x="738" y="282" width="14" height="28" fill="#84CE8F"></rect>
<rect id="B-027" x="755" y="282" width="14" height="28" fill="#84CE8F"></rect>
<rect id="B-026" x="773" y="282" width="13" height="28" fill="#84CE8F"></rect>
<rect id="B-025" x="790" y="282" width="13" height="28" fill="#84CE8F"></rect>
<rect id="A-021" x="449" y="404" width="13" height="28" fill="#84CE8F"></rect>
<rect id="A-020" x="466" y="404" width="13" height="28" fill="#84CE8F"></rect>
<rect id="A-019" x="482" y="404" width="14" height="28" fill="#84CE8F"></rect>
<rect id="A-018" x="500" y="404" width="13" height="28" fill="#84CE8F"></rect>
<rect id="A-017" x="517" y="404" width="13" height="28" fill="#84CE8F"></rect>
<rect id="A-016" x="534" y="404" width="13" height="28" fill="#84CE8F"></rect>
<rect id="A-015" x="551" y="404" width="13" height="28" fill="#84CE8F"></rect>
<rect id="A-014" x="567" y="404" width="14" height="28" fill="#84CE8F"></rect>
<rect id="A-013" x="584" y="404" width="14" height="28" fill="#84CE8F"></rect>
<rect id="A-012" x="601" y="404" width="14" height="28" fill="#84CE8F"></rect>
<rect id="A-011" x="619" y="404" width="13" height="28" fill="#84CE8F"></rect>
<rect id="A-010" x="636" y="404" width="13" height="28" fill="#84CE8F"></rect>
<rect id="A-009" x="652" y="404" width="15" height="28" fill="#84CE8F"></rect>
<rect id="A-008" x="670" y="404" width="14" height="28" fill="#84CE8F"></rect>
<rect id="A-007" x="686" y="404" width="14" height="28" fill="#84CE8F"></rect>
<rect id="A-006" x="703" y="377" width="15" height="28" fill="#84CE8F"></rect>
<rect id="A-005" x="721" y="377" width="14" height="28" fill="#84CE8F"></rect>
<rect id="A-004" x="738" y="377" width="13" height="28" fill="#84CE8F"></rect>
<rect id="A-003" x="754" y="377" width="15" height="28" fill="#84CE8F"></rect>
<rect id="A-002" x="772" y="377" width="13" height="28" fill="#84CE8F"></rect>
<rect id="A-001" x="789" y="377" width="14" height="28" fill="#84CE8F"></rect>
<rect id="B-024" x="807" y="282" width="13" height="28" fill="#84CE8F"></rect>
<rect id="B-023" x="432" y="242" width="13" height="28" fill="#84CE8F"></rect>
<rect id="B-022" x="449" y="242" width="13" height="28" fill="#84CE8F"></rect>
<rect id="B-021" x="466" y="242" width="13" height="28" fill="#84CE8F"></rect>
<rect id="B-020" x="483" y="242" width="14" height="28" fill="#84CE8F"></rect>
<rect id="B-019" x="500" y="242" width="14" height="28" fill="#84CE8F"></rect>
<rect id="B-018" x="517" y="242" width="14" height="28" fill="#84CE8F"></rect>
<rect id="B-017" x="534" y="242" width="14" height="28" fill="#84CE8F"></rect>
<rect id="B-016" x="551" y="242" width="14" height="28" fill="#84CE8F"></rect>
<rect id="B-015" x="568" y="242" width="14" height="28" fill="#84CE8F"></rect>
<rect id="B-014" x="585" y="242" width="14" height="28" fill="#84CE8F"></rect>
<rect id="B-013" x="602" y="242" width="14" height="28" fill="#84CE8F"></rect>
<rect id="B-012" x="619" y="242" width="14" height="28" fill="#84CE8F"></rect>
<rect id="B-011" x="636" y="242" width="14" height="28" fill="#84CE8F"></rect>
<rect id="B-010" x="653" y="242" width="14" height="28" fill="#84CE8F"></rect>
<rect id="B-009" x="670" y="242" width="14" height="28" fill="#84CE8F"></rect>
<rect id="B-008" x="687" y="242" width="14" height="28" fill="#84CE8F"></rect>
<rect id="B-007" x="704" y="242" width="14" height="28" fill="#84CE8F"></rect>
<rect id="B-006" x="721" y="242" width="14" height="28" fill="#84CE8F"></rect>
<rect id="B-005" x="738" y="242" width="14" height="28" fill="#84CE8F"></rect>
<rect id="B-004" x="755" y="242" width="14" height="28" fill="#84CE8F"></rect>
<rect id="B-003" x="773" y="242" width="13" height="28" fill="#84CE8F"></rect>
<rect id="B-002" x="790" y="242" width="13" height="28" fill="#84CE8F"></rect>
<rect id="B-001" x="807" y="242" width="13" height="28" fill="#84CE8F"></rect>
<rect id="grassBG_2" x="836" y="94" width="27" height="6" fill="#BABABA"></rect>
<rect id="grassBG_3" x="836" y="129" width="27" height="6" fill="#BABABA"></rect>
<rect id="grassBG_4" x="836" y="310" width="27" height="6" fill="#BABABA"></rect>
<rect id="grassBG_5" x="815" y="371" width="48" height="80" fill="#BABABA"></rect>
<rect id="grassBG_6" x="706" y="411" width="157" height="80" fill="#BABABA"></rect>
<rect id="grassBG_7" x="855" y="135" width="8" height="175" fill="#BABABA"></rect>
<rect id="grassBG_8" x="-17" y="451" width="730" height="47" fill="#BABABA"></rect>
<rect id="grassBG_9" y="66" width="18" height="411" fill="#BABABA"></rect>
<rect id="grassBG_10" x="18" y="-8" width="850" height="20" fill="#7E9E66"></rect>
<rect id="grassBG_11" width="18" height="31" fill="#BABABA"></rect>
</g>
<defs>
<clipPath id="clip0_37_351">
<rect width="861" height="484" fill="white"></rect>
</clipPath>
</defs>
</svg>