<svg width="861" height="484" viewBox="0 0 861 484" fill="none" xmlns="http://www.w3.org/2000/svg">
<g id="PHDParking1" clip-path="url(#clip0_8_85)">
<rect width="861" height="484" fill="white"></rect>
<rect id="grassBG" width="861" height="484" fill="#D9D9D9"></rect>
<rect id="grassBG_2" y="424" width="861" height="60" fill="#BABABA"></rect>
<rect id="A-001" x="35" y="198" width="40" height="200" fill="#84CE8F"></rect>
<rect id="A-002" x="80" y="198" width="40" height="200" fill="#84CE8F"></rect>
<rect id="A-003" x="125" y="198" width="40" height="200" fill="#84CE8F"></rect>
<rect id="A-004" x="170" y="198" width="40" height="200" fill="#84CE8F"></rect>
<rect id="A-005" x="215" y="198" width="40" height="200" fill="#84CE8F"></rect>
<rect id="A-006" x="260" y="198" width="40" height="200" fill="#84CE8F"></rect>
<rect id="A-007" x="305" y="198" width="40" height="200" fill="#84CE8F"></rect>
<rect id="A-008" x="350" y="198" width="40" height="200" fill="#84CE8F"></rect>
<rect id="A-009" x="395" y="198" width="40" height="200" fill="#84CE8F"></rect>
<rect id="A-010" x="440" y="198" width="40" height="200" fill="#84CE8F"></rect>
<rect id="A-011" x="485" y="198" width="40" height="200" fill="#84CE8F"></rect>
<rect id="A-012" x="530" y="198" width="40" height="200" fill="#84CE8F"></rect>
<rect id="A-013" x="575" y="198" width="40" height="200" fill="#84CE8F"></rect>
<rect id="A-014" x="620" y="198" width="40" height="200" fill="#84CE8F"></rect>
<rect id="A-015" x="665" y="198" width="40" height="200" fill="#84CE8F"></rect>
<rect id="A-016" x="725" y="198" width="40" height="200" fill="#A5CEDC"></rect>
<rect id="A-017" x="785" y="198" width="40" height="200" fill="#A5CEDC"></rect>
</g>
<defs>
<clipPath id="clip0_8_85">
<rect width="861" height="484" fill="white"></rect>
</clipPath>
</defs>
</svg>