<svg width="861" height="484" viewBox="0 0 861 484" fill="none" xmlns="http://www.w3.org/2000/svg">
<g clip-path="url(#clip0_7_2)">
<rect width="861" height="484" fill="white"/>
<rect width="861" height="484" fill="#7E9E66"/>
<rect x="69" y="34" width="712" height="413" fill="#D9D9D9"/>
<rect x="267" y="413" width="594" height="71" fill="#D9D9D9"/>
<!-- Blue spots (NOW FIRST) -->
<path d="M93 81V43L213 43V81L93 81Z" fill="#A5CEDC" data-spot-label="A-001"/>
<path d="M633 81V43L753 43V81L633 81Z" fill="#A5CEDC" data-spot-label="B-001"/>

<!-- Row A -->
<path d="M93 125.5V87.5H213V125.5L93 125.5Z" fill="#84CE8F" data-spot-label="A-002"/>
<path d="M93 170V132H213V170H93Z" fill="#84CE8F" data-spot-label="A-003"/>
<path d="M93 215V177H213V215H93Z" fill="#84CE8F" data-spot-label="A-004"/>
<path d="M93 260V222H213V260L93 260Z" fill="#84CE8F" data-spot-label="A-005"/>
<path d="M93 305V267H213V305H93Z" fill="#84CE8F" data-spot-label="A-006"/>
<path d="M93 350V312H213V350H93Z" fill="#84CE8F" data-spot-label="A-007"/>
<path d="M93 395V357H213V395H93Z" fill="#84CE8F" data-spot-label="A-008"/>
<path d="M93 440V402H213V440H93Z" fill="#84CE8F" data-spot-label="A-009"/>

<!-- Row B -->
<path d="M633 125.5V87.5H753V125.5L633 125.5Z" fill="#84CE8F" data-spot-label="B-002"/>
<path d="M633 170V132H753V170H633Z" fill="#84CE8F" data-spot-label="B-003"/>
<path d="M633 215V177H753V215H633Z" fill="#84CE8F" data-spot-label="B-004"/>
<path d="M633 260V222H753V260L633 260Z" fill="#84CE8F" data-spot-label="B-005"/>
<path d="M633 305V267H753V305H633Z" fill="#84CE8F" data-spot-label="B-006"/>
<path d="M633 350V312H753V350H633Z" fill="#84CE8F" data-spot-label="B-007"/>
<path d="M633 395V357H753V395H633Z" fill="#84CE8F" data-spot-label="B-008"/>
<path d="M633 440V402H753V440H633Z" fill="#84CE8F" data-spot-label="B-009"/>

<!-- Middle column: row C (unchanged) -->
<path d="M379 166V128H499V166H379Z" fill="#84CE8F" data-spot-label="C-001"/>
<path d="M379 224.5V186.5H499V224.5H379Z" fill="#84CE8F" data-spot-label="C-002"/>
<path d="M379 283.5V245.5H499V283.5H379Z" fill="#84CE8F" data-spot-label="C-003"/>
<path d="M379 342.5V304.5H499V342.5L379 342.5Z" fill="#84CE8F" data-spot-label="C-004"/>
<path d="M379 401.5V363.5H499V401.5H379Z" fill="#84CE8F" data-spot-label="C-005"/>
</g>
<defs>
<clipPath id="clip0_7_2">
<rect width="861" height="484" fill="white"/>
</clipPath>
</defs>
</svg>
