<svg width="633" height="484" viewBox="0 0 633 484" fill="none" xmlns="http://www.w3.org/2000/svg">
<g id="ResidentParking3" clip-path="url(#clip0_37_374)">
<rect width="633" height="484" fill="white"></rect>
<rect id="grassBG" width="633" height="484" fill="#D9D9D9"></rect>
<rect id="A-021" x="213.785" y="480.321" width="17" height="200" transform="rotate(-93 213.785 480.321)" fill="#84CE8F"></rect>
<rect id="A-020" x="209.785" y="457.877" width="17" height="200" transform="rotate(-93 209.785 457.877)" fill="#84CE8F"></rect>
<rect id="A-019" x="208.785" y="435.433" width="17" height="200" transform="rotate(-93 208.785 435.433)" fill="#84CE8F"></rect>
<rect id="A-018" x="206.785" y="412.989" width="17" height="200" transform="rotate(-93 206.785 412.989)" fill="#84CE8F"></rect>
<rect id="A-017" x="204.785" y="390.545" width="17" height="200" transform="rotate(-93 204.785 390.545)" fill="#84CE8F"></rect>
<rect id="A-016" x="202.785" y="368.102" width="17" height="200" transform="rotate(-93 202.785 368.102)" fill="#84CE8F"></rect>
<rect id="A-015" x="201.785" y="345.658" width="17" height="200" transform="rotate(-93 201.785 345.658)" fill="#84CE8F"></rect>
<rect id="A-014" x="198.785" y="323.214" width="17" height="200" transform="rotate(-93 198.785 323.214)" fill="#84CE8F"></rect>
<rect id="A-013" x="196.89" y="300.77" width="17" height="200" transform="rotate(-93 196.89 300.77)" fill="#84CE8F"></rect>
<rect id="A-012" x="194.89" y="278.326" width="17" height="200" transform="rotate(-93 194.89 278.326)" fill="#84CE8F"></rect>
<rect id="A-011" x="193.89" y="255.882" width="17" height="200" transform="rotate(-93 193.89 255.882)" fill="#84CE8F"></rect>
<rect id="A-010" x="190.89" y="233.438" width="17" height="200" transform="rotate(-93 190.89 233.438)" fill="#84CE8F"></rect>
<rect id="A-009" x="188.89" y="210.995" width="17" height="200" transform="rotate(-93 188.89 210.995)" fill="#84CE8F"></rect>
<rect id="A-008" x="186.89" y="188.551" width="17" height="200" transform="rotate(-93 186.89 188.551)" fill="#84CE8F"></rect>
<rect id="A-007" x="185.89" y="166.107" width="17" height="200" transform="rotate(-93 185.89 166.107)" fill="#84CE8F"></rect>
<rect id="A-006" x="183.89" y="143.663" width="17" height="200" transform="rotate(-93 183.89 143.663)" fill="#84CE8F"></rect>
<rect id="A-005" x="182.89" y="121.219" width="17" height="200" transform="rotate(-93 182.89 121.219)" fill="#84CE8F"></rect>
<rect id="A-004" x="179.89" y="98.7754" width="17" height="200" transform="rotate(-93 179.89 98.7754)" fill="#84CE8F"></rect>
<rect id="A-003" x="177.89" y="76.3315" width="17" height="200" transform="rotate(-93 177.89 76.3315)" fill="#84CE8F"></rect>
<rect id="A-002" x="176.89" y="53.8877" width="17" height="200" transform="rotate(-93 176.89 53.8877)" fill="#84CE8F"></rect>
<rect id="A-001" x="174.89" y="31.4438" width="17" height="200" transform="rotate(-93 174.89 31.4438)" fill="#84CE8F"></rect>
<rect id="grassBG_2" x="-124.555" y="-16.2402" width="279.899" height="543.176" transform="rotate(-5 -124.555 -16.2402)" fill="#7E9E66"></rect>
</g>
<defs>
<clipPath id="clip0_37_374">
<rect width="633" height="484" fill="white"></rect>
</clipPath>
</defs>
</svg>