<svg width="861" height="484" viewBox="0 0 861 484" fill="none" xmlns="http://www.w3.org/2000/svg">
<g id="StaffParking1" clip-path="url(#clip0_37_327)">
<rect width="861" height="484" fill="white"></rect>
<rect id="grassBG" width="861" height="484" fill="#D9D9D9"></rect>
<rect id="B-040" x="310" y="91" width="50" height="15" fill="#84CE8F"></rect>
<rect id="B-039" x="310" y="125" width="50" height="15" fill="#84CE8F"></rect>
<rect id="B-038" x="310" y="108" width="50" height="15" fill="#84CE8F"></rect>
<rect id="B-037" x="310" y="142" width="50" height="15" fill="#84CE8F"></rect>
<rect id="B-036" x="310" y="176" width="50" height="15" fill="#84CE8F"></rect>
<rect id="B-035" x="310" y="159" width="50" height="15" fill="#84CE8F"></rect>
<rect id="B-034" x="310" y="193" width="50" height="15" fill="#84CE8F"></rect>
<rect id="B-033" x="310" y="227" width="50" height="15" fill="#84CE8F"></rect>
<rect id="B-032" x="310" y="210" width="50" height="15" fill="#84CE8F"></rect>
<rect id="B-031" x="310" y="244" width="50" height="15" fill="#84CE8F"></rect>
<rect id="B-030" x="310" y="278" width="50" height="15" fill="#84CE8F"></rect>
<rect id="B-029" x="310" y="261" width="50" height="15" fill="#84CE8F"></rect>
<rect id="B-028" x="310" y="295" width="50" height="15" fill="#84CE8F"></rect>
<rect id="B-027" x="310" y="329" width="50" height="15" fill="#84CE8F"></rect>
<rect id="B-026" x="310" y="312" width="50" height="15" fill="#84CE8F"></rect>
<rect id="B-025" x="310" y="346" width="50" height="15" fill="#84CE8F"></rect>
<rect id="B-024" x="310" y="380" width="50" height="15" fill="#84CE8F"></rect>
<rect id="B-023" x="310" y="363" width="50" height="15" fill="#84CE8F"></rect>
<rect id="B-022" x="310" y="414" width="50" height="15" fill="#84CE8F"></rect>
<rect id="B-021" x="310" y="397" width="50" height="15" fill="#84CE8F"></rect>
<rect id="B-020" x="364" y="91" width="50" height="15" fill="#84CE8F"></rect>
<rect id="B-019" x="364" y="125" width="50" height="15" fill="#84CE8F"></rect>
<rect id="B-018" x="364" y="108" width="50" height="15" fill="#84CE8F"></rect>
<rect id="B-017" x="364" y="142" width="50" height="15" fill="#84CE8F"></rect>
<rect id="B-016" x="364" y="176" width="50" height="15" fill="#84CE8F"></rect>
<rect id="B-015" x="364" y="159" width="50" height="15" fill="#84CE8F"></rect>
<rect id="B-014" x="364" y="193" width="50" height="15" fill="#84CE8F"></rect>
<rect id="B-013" x="364" y="227" width="50" height="15" fill="#84CE8F"></rect>
<rect id="B-012" x="364" y="210" width="50" height="15" fill="#84CE8F"></rect>
<rect id="B-011" x="364" y="244" width="50" height="15" fill="#84CE8F"></rect>
<rect id="B-010" x="364" y="278" width="50" height="15" fill="#84CE8F"></rect>
<rect id="B-009" x="364" y="261" width="50" height="15" fill="#84CE8F"></rect>
<rect id="B-008" x="364" y="295" width="50" height="15" fill="#84CE8F"></rect>
<rect id="B-007" x="364" y="329" width="50" height="15" fill="#84CE8F"></rect>
<rect id="B-006" x="364" y="312" width="50" height="15" fill="#84CE8F"></rect>
<rect id="B-005" x="364" y="346" width="50" height="15" fill="#84CE8F"></rect>
<rect id="B-004" x="364" y="380" width="50" height="15" fill="#84CE8F"></rect>
<rect id="B-003" x="364" y="363" width="50" height="15" fill="#84CE8F"></rect>
<rect id="B-002" x="364" y="414" width="50" height="15" fill="#84CE8F"></rect>
<rect id="B-001" x="364" y="397" width="50" height="15" fill="#84CE8F"></rect>
<rect id="C-027" x="458" y="92" width="50" height="15" fill="#84CE8F"></rect>
<rect id="C-026" x="458" y="126" width="50" height="15" fill="#84CE8F"></rect>
<rect id="C-025" x="458" y="109" width="50" height="15" fill="#84CE8F"></rect>
<rect id="C-024" x="458" y="143" width="50" height="15" fill="#84CE8F"></rect>
<rect id="C-023" x="458" y="177" width="50" height="15" fill="#84CE8F"></rect>
<rect id="C-022" x="458" y="160" width="50" height="15" fill="#84CE8F"></rect>
<rect id="C-021" x="458" y="194" width="50" height="15" fill="#84CE8F"></rect>
<rect id="C-020" x="458" y="228" width="50" height="15" fill="#84CE8F"></rect>
<rect id="C-019" x="458" y="211" width="50" height="15" fill="#84CE8F"></rect>
<rect id="C-018" x="458" y="245" width="50" height="15" fill="#84CE8F"></rect>
<rect id="C-017" x="458" y="279" width="50" height="15" fill="#84CE8F"></rect>
<rect id="C-016" x="458" y="262" width="50" height="15" fill="#84CE8F"></rect>
<rect id="C-015" x="458" y="296" width="50" height="15" fill="#84CE8F"></rect>
<rect id="C-014" x="458" y="330" width="50" height="15" fill="#84CE8F"></rect>
<rect id="C-013" x="458" y="313" width="50" height="15" fill="#84CE8F"></rect>
<rect id="C-012" x="512" y="92" width="50" height="15" fill="#84CE8F"></rect>
<rect id="C-011" x="512" y="126" width="50" height="15" fill="#84CE8F"></rect>
<rect id="C-010" x="512" y="109" width="50" height="15" fill="#84CE8F"></rect>
<rect id="C-009" x="512" y="143" width="50" height="15" fill="#84CE8F"></rect>
<rect id="C-008" x="512" y="177" width="50" height="15" fill="#84CE8F"></rect>
<rect id="C-007" x="512" y="160" width="50" height="15" fill="#84CE8F"></rect>
<rect id="C-006" x="512" y="194" width="50" height="15" fill="#84CE8F"></rect>
<rect id="C-005" x="512" y="228" width="50" height="15" fill="#84CE8F"></rect>
<rect id="C-004" x="512" y="211" width="50" height="15" fill="#84CE8F"></rect>
<rect id="C-003" x="512" y="245" width="50" height="15" fill="#84CE8F"></rect>
<rect id="C-002" x="512" y="279" width="50" height="15" fill="#84CE8F"></rect>
<rect id="C-001" x="512" y="262" width="50" height="15" fill="#84CE8F"></rect>
<rect id="D-018" x="588" y="93" width="50" height="15" fill="#84CE8F"></rect>
<rect id="D-017" x="588" y="127" width="50" height="15" fill="#84CE8F"></rect>
<rect id="D-016" x="588" y="110" width="50" height="15" fill="#84CE8F"></rect>
<rect id="D-015" x="588" y="144" width="50" height="15" fill="#84CE8F"></rect>
<rect id="D-014" x="588" y="178" width="50" height="15" fill="#84CE8F"></rect>
<rect id="D-013" x="588" y="161" width="50" height="15" fill="#84CE8F"></rect>
<rect id="D-012" x="588" y="195" width="50" height="15" fill="#84CE8F"></rect>
<rect id="D-011" x="588" y="229" width="50" height="15" fill="#84CE8F"></rect>
<rect id="D-010" x="588" y="212" width="50" height="15" fill="#84CE8F"></rect>
<rect id="D-009" x="642" y="93" width="50" height="15" fill="#84CE8F"></rect>
<rect id="F-006" x="792" y="91" width="50" height="15" fill="#84CE8F"></rect>
<rect id="F-005" x="792" y="110" width="50" height="15" fill="#84CE8F"></rect>
<rect id="F-004" x="792" y="129" width="50" height="15" fill="#84CE8F"></rect>
<rect id="F-003" x="792" y="148" width="50" height="15" fill="#84CE8F"></rect>
<rect id="F-002" x="792" y="167" width="50" height="15" fill="#84CE8F"></rect>
<rect id="F-001" x="792" y="186" width="50" height="15" fill="#84CE8F"></rect>
<rect id="G-012" x="708.828" y="401" width="50" height="15" transform="rotate(7 708.828 401)" fill="#84CE8F"></rect>
<rect id="G-011" x="701.828" y="419" width="50" height="15" transform="rotate(7 701.828 419)" fill="#84CE8F"></rect>
<rect id="G-010" x="695.828" y="437" width="50" height="15" transform="rotate(7 695.828 437)" fill="#84CE8F"></rect>
<rect id="G-009" x="687.828" y="454" width="50" height="15" transform="rotate(7 687.828 454)" fill="#84CE8F"></rect>
<rect id="G-008" x="722.828" y="366" width="50" height="15" transform="rotate(7 722.828 366)" fill="#84CE8F"></rect>
<rect id="G-007" x="715.828" y="384" width="50" height="15" transform="rotate(7 715.828 384)" fill="#84CE8F"></rect>
<rect id="G-006" x="748.828" y="296" width="50" height="15" transform="rotate(7 748.828 296)" fill="#84CE8F"></rect>
<rect id="G-005" x="741.828" y="314" width="50" height="15" transform="rotate(7 741.828 314)" fill="#84CE8F"></rect>
<rect id="G-004" x="734.828" y="332" width="50" height="15" transform="rotate(7 734.828 332)" fill="#84CE8F"></rect>
<rect id="G-003" x="728.828" y="349" width="50" height="15" transform="rotate(7 728.828 349)" fill="#84CE8F"></rect>
<rect id="G-002" x="764.828" y="261" width="50" height="15" transform="rotate(7 764.828 261)" fill="#84CE8F"></rect>
<rect id="G-001" x="755.828" y="279" width="50" height="15" transform="rotate(7 755.828 279)" fill="#84CE8F"></rect>
<rect id="D-008" x="642" y="127" width="50" height="15" fill="#84CE8F"></rect>
<rect id="D-007" x="642" y="110" width="50" height="15" fill="#84CE8F"></rect>
<rect id="D-006" x="642" y="144" width="50" height="15" fill="#84CE8F"></rect>
<rect id="D-005" x="642" y="178" width="50" height="15" fill="#84CE8F"></rect>
<rect id="D-004" x="642" y="161" width="50" height="15" fill="#84CE8F"></rect>
<rect id="D-003" x="642" y="195" width="50" height="15" fill="#84CE8F"></rect>
<rect id="D-002" x="642" y="229" width="50" height="15" fill="#84CE8F"></rect>
<rect id="D-001" x="642" y="212" width="50" height="15" fill="#84CE8F"></rect>
<rect id="A-034" x="169" y="125" width="50" height="15" fill="#84CE8F"></rect>
<rect id="A-033" x="169" y="108" width="50" height="15" fill="#84CE8F"></rect>
<rect id="E-023" x="323" y="57" width="50" height="15" transform="rotate(-90 323 57)" fill="#84CE8F"></rect>
<rect id="E-022" x="347" y="57" width="50" height="15" transform="rotate(-90 347 57)" fill="#84CE8F"></rect>
<rect id="E-021" x="371" y="57" width="50" height="15" transform="rotate(-90 371 57)" fill="#84CE8F"></rect>
<rect id="E-020" x="395" y="57" width="50" height="15" transform="rotate(-90 395 57)" fill="#84CE8F"></rect>
<rect id="E-019" x="419" y="55" width="50" height="15" transform="rotate(-90 419 55)" fill="#84CE8F"></rect>
<rect id="E-018" x="443" y="55" width="50" height="15" transform="rotate(-90 443 55)" fill="#84CE8F"></rect>
<rect id="E-017" x="467" y="55" width="50" height="15" transform="rotate(-90 467 55)" fill="#84CE8F"></rect>
<rect id="E-016" x="491" y="55" width="50" height="15" transform="rotate(-90 491 55)" fill="#84CE8F"></rect>
<rect id="E-015" x="515" y="55" width="50" height="15" transform="rotate(-90 515 55)" fill="#84CE8F"></rect>
<rect id="E-014" x="539" y="55" width="50" height="15" transform="rotate(-90 539 55)" fill="#84CE8F"></rect>
<rect id="E-013" x="563" y="55" width="50" height="15" transform="rotate(-90 563 55)" fill="#84CE8F"></rect>
<rect id="E-012" x="587" y="55" width="50" height="15" transform="rotate(-90 587 55)" fill="#84CE8F"></rect>
<rect id="E-011" x="611" y="55" width="50" height="15" transform="rotate(-90 611 55)" fill="#84CE8F"></rect>
<rect id="E-010" x="635" y="55" width="50" height="15" transform="rotate(-90 635 55)" fill="#84CE8F"></rect>
<rect id="E-009" x="659" y="55" width="50" height="15" transform="rotate(-90 659 55)" fill="#84CE8F"></rect>
<rect id="E-008" x="683" y="55" width="50" height="15" transform="rotate(-90 683 55)" fill="#84CE8F"></rect>
<rect id="E-007" x="707" y="55" width="50" height="15" transform="rotate(-90 707 55)" fill="#84CE8F"></rect>
<rect id="E-006" x="731" y="55" width="50" height="15" transform="rotate(-90 731 55)" fill="#84CE8F"></rect>
<rect id="E-005" x="755" y="55" width="50" height="15" transform="rotate(-90 755 55)" fill="#84CE8F"></rect>
<rect id="E-004" x="779" y="55" width="50" height="15" transform="rotate(-90 779 55)" fill="#84CE8F"></rect>
<rect id="E-003" x="803" y="55" width="50" height="15" transform="rotate(-90 803 55)" fill="#84CE8F"></rect>
<rect id="E-002" x="827" y="55" width="50" height="15" transform="rotate(-90 827 55)" fill="#84CE8F"></rect>
<rect id="E-001" x="299" y="57" width="50" height="15" transform="rotate(-90 299 57)" fill="#84CE8F"></rect>
<rect id="A-032" x="169" y="142" width="50" height="15" fill="#84CE8F"></rect>
<rect id="A-031" x="169" y="176" width="50" height="15" fill="#84CE8F"></rect>
<rect id="A-030" x="169" y="159" width="50" height="15" fill="#84CE8F"></rect>
<rect id="A-029" x="169" y="193" width="50" height="15" fill="#84CE8F"></rect>
<rect id="A-028" x="169" y="227" width="50" height="15" fill="#84CE8F"></rect>
<rect id="A-027" x="169" y="210" width="50" height="15" fill="#84CE8F"></rect>
<rect id="A-026" x="169" y="244" width="50" height="15" fill="#84CE8F"></rect>
<rect id="A-025" x="169" y="278" width="50" height="15" fill="#84CE8F"></rect>
<rect id="A-024" x="169" y="261" width="50" height="15" fill="#84CE8F"></rect>
<rect id="H-010" x="35" y="239" width="50" height="15" fill="#84CE8F"></rect>
<rect id="H-009" x="35" y="221" width="50" height="15" fill="#84CE8F"></rect>
<rect id="H-008" x="35" y="257" width="50" height="15" fill="#84CE8F"></rect>
<rect id="H-007" x="35" y="293" width="50" height="15" fill="#84CE8F"></rect>
<rect id="H-006" x="35" y="275" width="50" height="15" fill="#84CE8F"></rect>
<rect id="H-005" x="35" y="311" width="50" height="15" fill="#84CE8F"></rect>
<rect id="H-004" x="35" y="347" width="50" height="15" fill="#84CE8F"></rect>
<rect id="H-003" x="35" y="329" width="50" height="15" fill="#84CE8F"></rect>
<rect id="H-002" x="35" y="365" width="50" height="15" fill="#84CE8F"></rect>
<rect id="H-001" x="35" y="383" width="50" height="15" fill="#84CE8F"></rect>
<rect id="A-023" x="169" y="295" width="50" height="15" fill="#84CE8F"></rect>
<rect id="A-022" x="169" y="329" width="50" height="15" fill="#84CE8F"></rect>
<rect id="A-021" x="169" y="312" width="50" height="15" fill="#84CE8F"></rect>
<rect id="A-020" x="169" y="363" width="50" height="15" fill="#84CE8F"></rect>
<rect id="A-019" x="169" y="346" width="50" height="15" fill="#84CE8F"></rect>
<rect id="A-018" x="223" y="125" width="50" height="15" fill="#84CE8F"></rect>
<rect id="A-017" x="223" y="108" width="50" height="15" fill="#84CE8F"></rect>
<rect id="A-016" x="169" y="91" width="50" height="15" fill="#84CE8F"></rect>
<rect id="A-015" x="223" y="91" width="50" height="15" fill="#84CE8F"></rect>
<rect id="A-014" x="223" y="142" width="50" height="15" fill="#84CE8F"></rect>
<rect id="A-013" x="223" y="176" width="50" height="15" fill="#84CE8F"></rect>
<rect id="A-012" x="223" y="159" width="50" height="15" fill="#84CE8F"></rect>
<rect id="A-011" x="223" y="193" width="50" height="15" fill="#84CE8F"></rect>
<rect id="A-010" x="223" y="227" width="50" height="15" fill="#84CE8F"></rect>
<rect id="A-009" x="223" y="210" width="50" height="15" fill="#84CE8F"></rect>
<rect id="A-008" x="223" y="244" width="50" height="15" fill="#84CE8F"></rect>
<rect id="A-007" x="223" y="278" width="50" height="15" fill="#84CE8F"></rect>
<rect id="A-006" x="223" y="261" width="50" height="15" fill="#84CE8F"></rect>
<rect id="A-005" x="223" y="295" width="50" height="15" fill="#84CE8F"></rect>
<rect id="A-004" x="223" y="329" width="50" height="15" fill="#84CE8F"></rect>
<rect id="A-003" x="223" y="312" width="50" height="15" fill="#84CE8F"></rect>
<rect id="A-002" x="223" y="363" width="50" height="15" fill="#84CE8F"></rect>
<rect id="A-001" x="223" y="346" width="50" height="15" fill="#84CE8F"></rect>
<rect id="grassBG_2" x="868.546" y="150.173" width="124" height="371.065" transform="rotate(20 868.546 150.173)" fill="#7E9E66"></rect>
<rect id="grassBG_3" x="854" width="7" height="191" fill="#BABABA"></rect>
<rect id="grassBG_4" x="139" width="722" height="3" fill="#BABABA"></rect>
<rect id="grassBG_5" x="-11" y="215" width="36" height="190" fill="#7E9E66"></rect>
<rect id="grassBG_6" x="-21.8402" y="394.867" width="735.839" height="94.6872" transform="rotate(7 -21.8402 394.867)" fill="#BABABA"></rect>
<rect id="grassBG_7" width="85" height="197" fill="#BABABA"></rect>
<rect id="grassBG_8" y="2" width="17" height="197" fill="#898989"></rect>
</g>
<defs>
<clipPath id="clip0_37_327">
<rect width="861" height="484" fill="white"></rect>
</clipPath>
</defs>
</svg>